<svg xmlns="http://www.w3.org/2000/svg" xmlns:xlink="http://www.w3.org/1999/xlink" width="83.45" height="121.775" viewBox="0 0 83.45 121.775">
  <defs>
    <linearGradient id="linear-gradient" x1="0.967" y1="0.062" x2="0.465" y2="0.911" gradientUnits="objectBoundingBox">
      <stop offset="0" stop-color="#c0bfbd"/>
      <stop offset="1" stop-color="#c0bfbd" stop-opacity="0.122"/>
    </linearGradient>
  </defs>
  <g id="Alien1" transform="translate(983.2 -362.725)">
    <g id="Group_4" data-name="Group 4">
      <path id="Path_3" data-name="Path 3" d="M-922.2,379.4c-6.9-5-15.3-8.4-23.8-8-2.8.1-5.8.8-7.6,3a9.1,9.1,0,0,0-1.6,6.4c.5,5.2,3.5,9.8,7.5,13.2a46.306,46.306,0,0,0,13.7,7.3c5.1,1.9,32.5,11.9,34.2,2,.7-4-6.1-8.7-8.4-11C-912.7,387.8-917,383.1-922.2,379.4Z" fill="#ff302d"/>
    </g>
    <g id="Group_5" data-name="Group 5">
      <path id="Path_4" data-name="Path 4" d="M-942.9,389.3l-40.3,76.9,55,18.3,3.6-87.9Z" fill="url(#linear-gradient)"/>
    </g>
    <g id="Group_6" data-name="Group 6">
      <path id="Path_5" data-name="Path 5" d="M-930.7,367.5a12.788,12.788,0,0,0-3.9,14.4c1.5,3.8,4.9,6.6,8.7,8.2a30.7,30.7,0,0,0,12,2.1c2.5.1,5.2-.1,7.2-1.5,2.4-1.6,3.5-4.7,3.5-7.6C-902.8,371.5-920.6,359.7-930.7,367.5Z" fill="#00b267"/>
    </g>
    <g id="Group_12" data-name="Group 12">
      <g id="Group_7" data-name="Group 7">
        <path id="Path_6" data-name="Path 6" d="M-913.6,365.8a2.723,2.723,0,0,0-.9-2.4,2.755,2.755,0,0,0-2.5-.6,2.631,2.631,0,0,0-1.6,1.5c-.6,1.3-.5,3.7,1.2,4A3.047,3.047,0,0,0-913.6,365.8Z" fill="#fff"/>
      </g>
      <g id="Group_8" data-name="Group 8">
        <path id="Path_7" data-name="Path 7" d="M-917.5,373.7a2.631,2.631,0,0,0-2.1-1.4,2.514,2.514,0,0,0-2.3,1,2.619,2.619,0,0,0-.4,2.1c.3,1.4,1.7,3.3,3.3,2.6A3.052,3.052,0,0,0-917.5,373.7Z" fill="#fff"/>
      </g>
      <g id="Group_9" data-name="Group 9">
        <path id="Path_8" data-name="Path 8" d="M-920.9,367.8a2.035,2.035,0,0,0-.6-1.5,1.8,1.8,0,0,0-1.6-.4,1.438,1.438,0,0,0-1,1c-.4.8-.3,2.3.8,2.6A2,2,0,0,0-920.9,367.8Z" fill="#fff"/>
      </g>
      <g id="Group_10" data-name="Group 10">
        <path id="Path_9" data-name="Path 9" d="M-913.7,381.1a2.035,2.035,0,0,0-.6-1.5,1.8,1.8,0,0,0-1.6-.4,1.438,1.438,0,0,0-1,1c-.4.8-.3,2.3.8,2.6A1.954,1.954,0,0,0-913.7,381.1Z" fill="#fff"/>
      </g>
      <g id="Group_11" data-name="Group 11">
        <path id="Path_10" data-name="Path 10" d="M-906,371.8a3.118,3.118,0,0,0-1.6-2.4,2.8,2.8,0,0,0-2.8,0,2.765,2.765,0,0,0-1.3,2c-.3,1.5.4,4.1,2.3,4.1A3.286,3.286,0,0,0-906,371.8Z" fill="#fff"/>
      </g>
    </g>
    <g id="Group_18" data-name="Group 18">
      <g id="Group_13" data-name="Group 13">
        <path id="Path_11" data-name="Path 11" d="M-929.8,394.8a3.4,3.4,0,0,0-1-2.7,2.821,2.821,0,0,0-2.8-.6,3.321,3.321,0,0,0-1.8,1.7c-.7,1.4-.5,4.1,1.3,4.5C-932,398.1-929.9,396.9-929.8,394.8Z" fill="#ff302d"/>
      </g>
      <g id="Group_14" data-name="Group 14">
        <path id="Path_12" data-name="Path 12" d="M-934.1,403.7a3.118,3.118,0,0,0-2.4-1.6,2.882,2.882,0,0,0-2.6,1.1,3.41,3.41,0,0,0-.5,2.4c.3,1.6,1.9,3.7,3.7,2.9A3.431,3.431,0,0,0-934.1,403.7Z" fill="#ff302d"/>
      </g>
      <g id="Group_15" data-name="Group 15">
        <path id="Path_13" data-name="Path 13" d="M-938,397.2a2.114,2.114,0,0,0-.6-1.7,1.979,1.979,0,0,0-1.8-.4,1.981,1.981,0,0,0-1.1,1.1c-.4.9-.3,2.6.9,2.9A2.207,2.207,0,0,0-938,397.2Z" fill="#ff302d"/>
      </g>
      <g id="Group_16" data-name="Group 16">
        <path id="Path_14" data-name="Path 14" d="M-929.8,412.1a2.114,2.114,0,0,0-.6-1.7,1.979,1.979,0,0,0-1.8-.4,1.981,1.981,0,0,0-1.1,1.1c-.4.9-.3,2.6.9,2.9A2.256,2.256,0,0,0-929.8,412.1Z" fill="#ff302d"/>
      </g>
      <g id="Group_17" data-name="Group 17">
        <path id="Path_15" data-name="Path 15" d="M-921.2,401.6a3.9,3.9,0,0,0-1.8-2.7,3.309,3.309,0,0,0-3.2,0,3.621,3.621,0,0,0-1.5,2.3c-.3,1.7.5,4.6,2.6,4.6A3.806,3.806,0,0,0-921.2,401.6Z" fill="#ff302d"/>
      </g>
    </g>
    <g id="Group_19" data-name="Group 19">
      <path id="Path_16" data-name="Path 16" d="M-912.6,395.1A27.3,27.3,0,0,1-934.8,383c-1.9-2.9-2.5-5.5-2-7.7l1.2.3c-.5,1.9.1,4.2,1.8,6.8A26.049,26.049,0,0,0-912.6,394Z" fill="#231c64"/>
    </g>
  </g>
</svg>
