<svg xmlns="http://www.w3.org/2000/svg" xmlns:xlink="http://www.w3.org/1999/xlink" width="82.891" height="71.91" viewBox="0 0 82.891 71.91">
  <defs>
    <filter id="Path_107" x="0" y="35.973" width="33.312" height="35.937" filterUnits="userSpaceOnUse">
      <feOffset dy="3" input="SourceAlpha"/>
      <feGaussianBlur stdDeviation="3" result="blur"/>
      <feFlood flood-opacity="0.161"/>
      <feComposite operator="in" in2="blur"/>
      <feComposite in="SourceGraphic"/>
    </filter>
    <filter id="Path_108" x="18.027" y="23.43" width="32.81" height="35.248" filterUnits="userSpaceOnUse">
      <feOffset dy="3" input="SourceAlpha"/>
      <feGaussianBlur stdDeviation="3" result="blur-2"/>
      <feFlood flood-opacity="0.161"/>
      <feComposite operator="in" in2="blur-2"/>
      <feComposite in="SourceGraphic"/>
    </filter>
    <filter id="Path_109" x="6.84" y="28.197" width="35.557" height="38.752" filterUnits="userSpaceOnUse">
      <feOffset dy="3" input="SourceAlpha"/>
      <feGaussianBlur stdDeviation="3" result="blur-3"/>
      <feFlood flood-opacity="0.161"/>
      <feComposite operator="in" in2="blur-3"/>
      <feComposite in="SourceGraphic"/>
    </filter>
    <filter id="Path_110" x="4.863" y="10.039" width="38.915" height="39.633" filterUnits="userSpaceOnUse">
      <feOffset dy="3" input="SourceAlpha"/>
      <feGaussianBlur stdDeviation="3" result="blur-4"/>
      <feFlood flood-opacity="0.161"/>
      <feComposite operator="in" in2="blur-4"/>
      <feComposite in="SourceGraphic"/>
    </filter>
    <filter id="Path_111" x="29.159" y="0" width="53.732" height="49.722" filterUnits="userSpaceOnUse">
      <feOffset dy="3" input="SourceAlpha"/>
      <feGaussianBlur stdDeviation="3" result="blur-5"/>
      <feFlood flood-opacity="0.161"/>
      <feComposite operator="in" in2="blur-5"/>
      <feComposite in="SourceGraphic"/>
    </filter>
  </defs>
  <g id="Bee" transform="translate(754.071 -355.178)">
    <g transform="matrix(1, 0, 0, 1, -754.07, 355.18)" filter="url(#Path_107)">
      <path id="Path_107-2" data-name="Path 107" d="M-729.9,412.9a27,27,0,0,1-6.3,1.9c-2.7.4-5.8.3-7.5-1.8a6.8,6.8,0,0,1-1.2-5.2c.5-4.1,3-7.8,6.2-10.5a23.82,23.82,0,0,1,1.4,2.3C-736.8,400.6-732.8,407.7-729.9,412.9Z" transform="translate(754.07 -355.18)" fill="#fff53e" stroke="#bcdbff" stroke-width="0.2"/>
    </g>
    <g transform="matrix(1, 0, 0, 1, -754.07, 355.18)" filter="url(#Path_108)">
      <path id="Path_108-2" data-name="Path 108" d="M-714.5,397.6a22.983,22.983,0,0,1-3.5,4.1c-3-5-5.9-10-8.9-15,3.5-1.5,7.4-2.5,10.5-1.7C-710.6,386.7-712,393.9-714.5,397.6Z" transform="translate(754.07 -355.18)" fill="#ff302d" stroke="#bcdbff" stroke-width="0.2"/>
    </g>
    <g transform="matrix(1, 0, 0, 1, -754.07, 355.18)" filter="url(#Path_109)">
      <path id="Path_109-2" data-name="Path 109" d="M-720.8,404.4a26.307,26.307,0,0,1-8.4,5.6c-2.9-5.2-6.9-12.3-7.5-13.3-.3-.5-.8-1.4-1.4-2.3a17.192,17.192,0,0,1,3.2-2.3,47.991,47.991,0,0,1,5.1-2.6C-726.7,394.4-723.8,399.4-720.8,404.4Z" transform="translate(754.07 -355.18)" fill="#ff5a19" stroke="#bcdbff" stroke-width="0.2"/>
    </g>
    <g transform="matrix(1, 0, 0, 1, -754.07, 355.18)" filter="url(#Path_110)">
      <path id="Path_110-2" data-name="Path 110" d="M-719.7,373.7a5.5,5.5,0,0,0-1.5-1.9,66.019,66.019,0,0,0-3.8,8.1,75.069,75.069,0,0,1-3.8,8.2l-.8-.5a58.021,58.021,0,0,0,3.7-8,67.3,67.3,0,0,1,3.8-8.2,2.462,2.462,0,0,0-1.2-.1,5.083,5.083,0,0,0-2.2,1.1,29.586,29.586,0,0,0-5.1,4.9c-1.2,1.5-2.3,3.4-1.7,5.2-.7-1.1-1.1-2.3-1.8-3.4a3.164,3.164,0,0,0-3.2-1.6,3.147,3.147,0,0,0-1.7,1.3,6.518,6.518,0,0,0-.7,5.9,9.911,9.911,0,0,0,3.7,4.9c1.6,1.2,4.9,3.2,7,3.2,2.4,0,4.6-2.9,5.8-4.7a26.7,26.7,0,0,0,3.8-9.8A11.685,11.685,0,0,0-719.7,373.7Z" transform="translate(754.07 -355.18)" fill="#fff" stroke="#ffc300" stroke-width="0.1"/>
    </g>
    <g id="Group_121" data-name="Group 121">
      <g transform="matrix(1, 0, 0, 1, -754.07, 355.18)" filter="url(#Path_111)">
        <path id="Path_111-2" data-name="Path 111" d="M-714.8,392.9a10.882,10.882,0,0,1,.1-9.8,8.845,8.845,0,0,1,4.4-3.7,11.352,11.352,0,0,1,2-6.8,9.8,9.8,0,0,1,6.9-4.3,8.32,8.32,0,0,1,1.3-1.8,15.542,15.542,0,0,1,10.6-5.3,10.445,10.445,0,0,1,6.5,1.6,6.292,6.292,0,0,1,2.7,6.3l-2-.4a4.36,4.36,0,0,0-1.9-4.2,7.7,7.7,0,0,0-5.1-1.2,13.534,13.534,0,0,0-9.2,4.5c-.2.2-.3.4-.5.6a6.208,6.208,0,0,1,4,3.6,5.158,5.158,0,0,1-.2,4.7,4.1,4.1,0,0,1-2,1.7c-2,.7-4-.7-4.9-2.4a7.032,7.032,0,0,1-.3-5.5,7.727,7.727,0,0,0-4.1,3.2,10.271,10.271,0,0,0-1.6,5.2,5.242,5.242,0,0,1,2.5.3,6.419,6.419,0,0,1,4.1,3.8,6.21,6.21,0,0,1,0,5,2.35,2.35,0,0,1-.8,1c-.8.6-1.9.5-3.1-.2a10.477,10.477,0,0,1-4.6-7v-.2a6.338,6.338,0,0,0-2.8,2.6,8.473,8.473,0,0,0,0,7.9ZM-708,381a.367.367,0,0,0,.1.3,8.091,8.091,0,0,0,3.7,5.6,1.463,1.463,0,0,0,.8.3h0l.1-.2a3.617,3.617,0,0,0-.1-3.2,4.753,4.753,0,0,0-2.8-2.6A5.538,5.538,0,0,0-708,381Zm7.8-10.6a5.534,5.534,0,0,0-.1,4.7c.5.9,1.5,1.7,2.4,1.4a2.166,2.166,0,0,0,.9-.8,3.08,3.08,0,0,0,.1-2.8,4.21,4.21,0,0,0-2.9-2.5Z" transform="translate(754.07 -355.18)" fill="#bcdbff"/>
      </g>
    </g>
  </g>
</svg>
