<svg xmlns="http://www.w3.org/2000/svg" width="57.408" height="88.375" viewBox="0 0 57.408 88.375">
  <g id="Group_31" data-name="Group 31" transform="translate(471.381 -386.525)">
    <g id="Group_21" data-name="Group 21">
      <path id="Path_17" data-name="Path 17" d="M-460,450.6a13.189,13.189,0,0,0-8.2,2.4,7.8,7.8,0,0,0-3,7.7,7.232,7.232,0,0,0,2,3.2c3.3,3.3,8.6,3.8,13,2.5s8.3-4.1,12-6.9c5.6,2.9,11.6,5.8,17.9,5.4s12.8-5.4,12.3-11.7a7.109,7.109,0,0,0-2.9-5.3,8.39,8.39,0,0,0-5.2-.9,17.56,17.56,0,0,0-8.5,3.1c-2.2,1.6-4.1,3.6-6.4,5.1-3.8,2.4-6.5,1.7-10-.4A22.626,22.626,0,0,0-460,450.6Z" fill="#0063ff"/>
    </g>
    <g id="Group_22" data-name="Group 22">
      <path id="Path_18" data-name="Path 18" d="M-455,434.8c-3.5-.8-7.6-.7-10,1.9a6.514,6.514,0,0,0,1.1,9.4c2.8,1.9,6.5,1.3,9.6.1,3.1-1.1,6.3-2.8,9.6-2.6,2.4.1,4.7,1.1,7.1,1.7a20.45,20.45,0,0,0,14.9-2.2c2.3-1.4,4.4-3.4,4.8-6,.4-3.3-2.4-6.5-5.7-7.2a10.555,10.555,0,0,0-9.2,3c-1.9,1.7-3.4,3.9-5.3,5.7C-444.6,444.1-448.5,436.2-455,434.8Z" fill="#0063ff"/>
    </g>
    <g id="Group_23" data-name="Group 23">
      <path id="Path_19" data-name="Path 19" d="M-454.3,417.8a11.516,11.516,0,0,0-7.7,1.8c-2.2,1.6-3.5,4.5-2.5,7.1.9,2.4,3.7,3.8,6.3,3.6a12.539,12.539,0,0,0,7-3.2,13.108,13.108,0,0,1,2.8-2c2.5-1,5.1.4,7.6,1.1a18.282,18.282,0,0,0,9,.4c2.8-.6,5.5-1.9,7-4.3s1.1-6-1.3-7.5a8.479,8.479,0,0,0-4.5-.9c-2.5-.1-5.1,0-7.2,1.4-1.5,1-2.4,2.5-3.6,3.9C-445.3,423.8-449.1,418.2-454.3,417.8Z" fill="#0063ff"/>
    </g>
    <g id="Group_24" data-name="Group 24">
      <path id="Path_20" data-name="Path 20" d="M-446.7,474.9c-1.2-6.6-.2-13.2.8-19.6.5-3.2,1-6.4,1.2-9.6.4-6.8-.4-13.7-1.2-20.4l-3.6-30.2,2.9-.3L-443,425c.8,6.8,1.7,13.9,1.2,20.9-.2,3.3-.7,6.7-1.2,9.9-1,6.5-1.9,12.5-.8,18.6Z" fill="#ff302d"/>
    </g>
    <g id="Group_25" data-name="Group 25">
      <path id="Path_21" data-name="Path 21" d="M-450.4,405.4c-1.9-3.2-3.6-6.7-3.5-10.5.1-3.7,2.5-7.6,6.1-8.3,3.7-.6,7.4,2.5,8.3,6.1.9,3.7-.3,7.6-2.3,10.8-1.1,1.8-2.5,3.6-2.7,5.7C-445.2,416.1-449.1,407.5-450.4,405.4Z" fill="#0063ff"/>
    </g>
    <g id="Group_30" data-name="Group 30">
      <g id="Group_26" data-name="Group 26">
        <path id="Path_22" data-name="Path 22" d="M-460.6,459.8h-3.3v-1.2c13.8.3,27.7-1.4,41.2-3.1l.2,1.2C-434.9,458.2-447.8,459.8-460.6,459.8Z" fill="#fff"/>
      </g>
      <g id="Group_27" data-name="Group 27">
        <path id="Path_23" data-name="Path 23" d="M-460.6,442.9l-.8-.9c2-1.6,4.7-1.7,7.1-1.6q5.25.15,10.5.6l.8.1a41.313,41.313,0,0,0,9.3,0,11.367,11.367,0,0,0,8.1-5l1.1.6a12.8,12.8,0,0,1-8.9,5.6,34.3,34.3,0,0,1-9.6,0l-.8-.1c-3.5-.3-7-.5-10.5-.5C-456.6,441.5-459,441.5-460.6,442.9Z" fill="#fff"/>
      </g>
      <g id="Group_28" data-name="Group 28">
        <path id="Path_24" data-name="Path 24" d="M-458.8,425.9l-.6-1.1a25.562,25.562,0,0,1,16.9-3.5c.4.1.9.1,1.3.2a20.785,20.785,0,0,0,2.3.3,13.174,13.174,0,0,0,9.5-3.1l.8.9A14.12,14.12,0,0,1-439,423c-.8-.1-1.7-.2-2.4-.3-.4-.1-.9-.1-1.3-.2A25.167,25.167,0,0,0-458.8,425.9Z" fill="#fff"/>
      </g>
      <g id="Group_29" data-name="Group 29">
        <path id="Path_25" data-name="Path 25" d="M-443.5,413.5c-2.9-1.6-3.7-5.1-4-8a71.807,71.807,0,0,1-.4-10.4h1.2a86.13,86.13,0,0,0,.4,10.2c.3,2.7.9,5.7,3.3,7Z" fill="#fff"/>
      </g>
    </g>
  </g>
</svg>
