<svg xmlns="http://www.w3.org/2000/svg" width="75.5" height="62.6" viewBox="0 0 75.5 62.6">
  <g id="Group_112" data-name="Group 112" transform="translate(861.2 -321.8)">
    <g id="Group_111" data-name="Group 111">
      <path id="Path_98" data-name="Path 98" d="M-813.3,369.2c-15.8,12.4-34.7,15.2-47.8,15.2v-4.7c1.3.1,2.6.2,4,.2,9.6,0,20.2-2.8,31.5-8.2a59.115,59.115,0,0,0,10.4-6.2,35.576,35.576,0,0,0,10.9-14.8l-1.2-.5A34.635,34.635,0,0,1-816,364.5a48.971,48.971,0,0,1-10.2,6.1c-12.8,6.2-24.5,8.8-34.9,7.9v-3.7h.6a69.548,69.548,0,0,0,35.8-10c7.8-4.7,12.8-10.3,14.8-16.4l-1.2-.4c-1.9,5.9-6.7,11.1-14.3,15.7a68.411,68.411,0,0,1-35.8,9.8v-5.7c14.8-.1,28.1-4.2,37.5-11.6,10.3-8.2,16-20.8,14.4-32.1l2.7-.4c-.2,4.4,0,12.3,1.6,12.3.8,0,1.2-.8,1.4-1.6,1-3.3,1.1-6.9,1.3-10.3a4.486,4.486,0,0,1,.1-1.1l4.5-.6a19.309,19.309,0,0,1,0,3.4l-.3,6c0,.8,0,1.9.8,2.2a1.342,1.342,0,0,0,1.5-.7,5.264,5.264,0,0,0,.4-1.8c.2-3.1.2-6.3.2-9.4l2.4-.3C-790.3,338.8-798.3,357.5-813.3,369.2Z" fill="#9fb5f4"/>
    </g>
    <path id="Path_99" data-name="Path 99" d="M-789.9,333.9c.1-1.2.3-2.4.4-3.6a23.392,23.392,0,0,1,3.8-.9l-.9,6.3a14.138,14.138,0,0,1-1.1,4.5,9.777,9.777,0,0,1-5.9,5,13.831,13.831,0,0,1-7.8.3c.9-4.7,1.7-3.6,5.6-4C-791.6,340.9-790.4,337.7-789.9,333.9Z" fill="#9fb5f4"/>
  </g>
</svg>
