<svg xmlns="http://www.w3.org/2000/svg" width="45.502" height="36.142" viewBox="0 0 45.502 36.142">
  <g id="Group_109" data-name="Group 109" transform="translate(391.704 -436.558)">
    <path id="Path_93" data-name="Path 93" d="M-385.1,456a6.076,6.076,0,0,0,4.5,7.7,5.838,5.838,0,0,0,6.6-5.8c2.9,3.4,6.9,6.8,11.4,6.3a11.238,11.238,0,0,0,4.7-1.8,16.39,16.39,0,0,0,5.7-5.4,13.708,13.708,0,0,0-1.2-15.9,13.664,13.664,0,0,0-15.6-3.4c-5.4,2.4-5.6,6.5-7.8,11.1-1.3,2.9-.6,1.6-3.2,3.2C-382,453.3-384.1,453.2-385.1,456Z" fill="#0082ee"/>
    <g id="Group_108" data-name="Group 108">
      <path id="Path_94" data-name="Path 94" d="M-349.1,472.7l-1.8-1.1a18.818,18.818,0,0,0,2.3-12.9,19.062,19.062,0,0,0-6.8-11.3,14.507,14.507,0,0,0-8.3-3.3,10.264,10.264,0,0,0-8,3l-1.5-1.4a12.163,12.163,0,0,1,9.6-3.6,17.3,17.3,0,0,1,9.5,3.8,20.9,20.9,0,0,1,7.5,12.5A20.02,20.02,0,0,1-349.1,472.7Z" fill="#80fffc"/>
    </g>
    <path id="Path_95" data-name="Path 95" d="M-390.3,440a7.507,7.507,0,0,0,.2,9,11.288,11.288,0,0,0,8.4,4.2c2.7.2,5.8-.5,7.1-2.9a4.16,4.16,0,0,0,2.3,5.4c8.6,3.3,9.7-11.6,3.5-15.1C-374.1,437.5-385.9,434.5-390.3,440Z" fill="#00cee6"/>
  </g>
</svg>
