<svg xmlns="http://www.w3.org/2000/svg" width="105.829" height="345.845" viewBox="0 0 105.829 345.845">
  <g id="Group_214" data-name="Group 214" transform="translate(248.897 -122.057)">
    <path id="Path_130" data-name="Path 130" d="M-143.9,332.3c-3.9-1.6-8-2.2-12.1-2.9-3.8-.7-7.8-1.7-10.5-4.7-3.1-3.4-3.4-8.4-2-12.6a23.642,23.642,0,0,1,8.4-11.3c4.1-3.1,9.2-5.1,14.4-4.2,2,.3,2.9-2.8.9-3.1-10.5-1.7-20.8,5.4-25.4,14.5-2.3,4.7-3.1,10.1-1,15,1.9,4.5,5.8,7.2,10.4,8.6,5.1,1.5,10.5,1.5,15.4,3.6a1.734,1.734,0,0,0,2.2-.6A1.9,1.9,0,0,0-143.9,332.3Z" fill="#ff001c"/>
    <path id="Path_132" data-name="Path 132" d="M-180.6,207.2c-6.1-3.7-13.4-5.7-20.4-3.5-2,.6-1.1,3.8.9,3.1,11.2-3.5,22.8,4.9,29,13.6,3.3,4.7,5.5,10.3,4.8,16.1a15.221,15.221,0,0,1-9.4,12.3c-6.8,3-14.6,2-21.7,1.1-2.1-.3-2,3,0,3.2,7.2.9,14.8,1.8,21.8-.8,6-2.3,10.6-6.8,12.1-13.1C-160.4,226.2-170,213.6-180.6,207.2Z" fill="#ff001c"/>
    <path id="Path_134" data-name="Path 134" d="M-194,167.8a67.135,67.135,0,0,0-27,26.1c-1,1.8,1.6,3.6,2.7,1.8a63.756,63.756,0,0,1,25.7-25A1.61,1.61,0,0,0-194,167.8Z" fill="#ff001c"/>
    <path id="Path_135" data-name="Path 135" d="M-204.4,396.5a67.135,67.135,0,0,0-27,26.1c-1,1.8,1.6,3.6,2.7,1.8a63.756,63.756,0,0,1,25.7-25C-201.1,398.4-202.5,395.5-204.4,396.5Z" fill="#ff001c"/>
    <path id="Path_136" data-name="Path 136" d="M-221.7,345.5c-1.8-.7-3.9-.9-5.7-1.7-2-.9-2.2-3-1.9-4.9.6-4.7,3.1-8.8,5.8-12.6,2.5-3.5,5.2-7.2,5.1-11.7a11.913,11.913,0,0,0-5.1-9.2c-8.1-6-18.3-1.6-24.8,4.6-1.7,1.6.6,4.4,2.3,2.8,5-4.8,12.8-9.2,19.5-5,2.7,1.7,4.7,4.4,4.4,7.7-.3,3.8-3.1,7-5.3,10a30.9,30.9,0,0,0-5.4,11.8c-.7,3.5-.3,7.4,3,9.4a15.747,15.747,0,0,0,4.6,1.6,14.69,14.69,0,0,1,4.9,2.3,13.948,13.948,0,0,1,5.1,8.4c1.3,7.7-5.6,14.9-13.3,14.6-2.3-.1-2.7,3.5-.3,3.6,7.7.3,15.2-5,17-12.6C-209.8,356.8-214.4,348.4-221.7,345.5Z" fill="#ff001c"/>
    <path id="Path_137" data-name="Path 137" d="M-230.3,267.4a35.138,35.138,0,0,0,11.5,5.6c4,1.1,8.2,1.7,12.2,2.9a26.8,26.8,0,0,1,16.8,15.6,26.346,26.346,0,0,1-1.1,21.3,22.053,22.053,0,0,1-3,4.5c-1.4,1.7,1.2,3.9,2.6,2.3a29.635,29.635,0,0,0,6.6-20.7,30.014,30.014,0,0,0-10.5-20.5,30.708,30.708,0,0,0-10.5-5.7c-4.1-1.3-8.3-1.8-12.4-3a30.34,30.34,0,0,1-11.6-6.2,20.606,20.606,0,0,1-4.4-4.9,7.821,7.821,0,0,1-.6-6c1-3.6,2.7-7,4.1-10.5a55.943,55.943,0,0,0,3.4-10.5,25.511,25.511,0,0,0-.1-11,34.223,34.223,0,0,0-6-11.7c-4.5-6.2-10.6-12.4-11.9-20.3a13.247,13.247,0,0,1,2.5-10.4c2.4-3.3,5.7-5.7,8.7-8.3,6.5-5.5,12.8-11.7,16.5-19.6,3.2-6.8,4.2-15.1,1.6-22.5a23.376,23.376,0,0,0-2.5-5,1.692,1.692,0,0,0-2.8,1.9c4.2,6.4,4.2,14.6,1.7,21.5-2.9,8-8.8,14.3-15.1,19.7-5.7,4.9-13.1,9.7-14.1,18-.8,7.3,3,14.2,7.2,19.9,5,6.7,11.3,13.4,11.4,22.3.1,7.3-3.5,14-6.1,20.6-1.4,3.4-3,7.1-2.1,10.9C-237.3,261.5-233.6,264.9-230.3,267.4Z" fill="#ff001c"/>
    <path id="Path_139" data-name="Path 139" d="M-160.9,430.6c6.4-10.3,2.1-23.6-5.1-32.2-4.3-5.1-9.5-9.2-14.8-13.1,7.7-4.3,14.4-10.8,16.5-19.6,2.1-8.4-.6-17.5-8.3-22a15.631,15.631,0,0,0-13-1.4c-2,.7-1,3.8,1,3.1,6.7-2.4,14.2,2,16.6,8.4,2.8,7.3.1,15.5-4.9,21.2a38.1,38.1,0,0,1-11.9,8.7,1.646,1.646,0,0,0-.2,2.6c9.2,6.8,19.4,14.3,22.8,25.8,1.4,4.9,1.6,10.4-.6,15.1a19.784,19.784,0,0,1-10.7,9.6,35.127,35.127,0,0,1-8.3,2.2,9.891,9.891,0,0,0-9.7.8,1.647,1.647,0,0,0,1,3,74.442,74.442,0,0,0,8.1-.4,14.63,14.63,0,0,1,1.3.9c2.8,2.5,3.1,6.6,2,9.9-2.8,8.2-13,11.2-20.8,11.4a34.7,34.7,0,0,1-14.6-2.6c-1.9-.8-3.4,2.1-1.5,2.9,9.7,4,21.2,4.2,30.7-.6a18.459,18.459,0,0,0,9.6-10.9,12.769,12.769,0,0,0-2.3-11.9C-171.1,440-164.7,436.7-160.9,430.6Z" fill="#ff001c"/>
  </g>
</svg>
