<svg xmlns="http://www.w3.org/2000/svg" width="133.571" height="364.888" viewBox="0 0 133.571 364.888">
  <g id="Dodles2" transform="translate(1104.122 -135.885)">
    <path id="Path_127" data-name="Path 127" d="M-1046.4,466.3c-5.1-1.6-10.6-.7-15.7,1,3.5-6,4.6-13.4,2.2-19.9a18.72,18.72,0,0,0-17.8-12.2,15.97,15.97,0,0,0-11.2,4.4c-1.3,1.2.7,3.2,2,2,6-5.9,16.5-4.2,21.7,1.9,6.3,7.3,4.4,18.9-1.5,25.8-.8.9-.1,2.9,1.3,2.3,8.2-3.4,21.3-6.2,25.7,4.3,3.5,8.4-1.2,17.5-9.5,20.7a23.831,23.831,0,0,1-15.6.2c-1.7-.5-2.4,2.1-.7,2.7,9.7,3.1,22.5.7,27.6-9C-1033.3,481.5-1036.4,469.5-1046.4,466.3Z" fill="#ff001c"/>
    <path id="Path_128" data-name="Path 128" d="M-1061.2,222.8c-5.1-1.6-10.6-.7-15.7,1,3.5-6,4.6-13.4,2.2-19.9a18.72,18.72,0,0,0-17.8-12.2,15.97,15.97,0,0,0-11.2,4.4c-1.3,1.2.7,3.2,2,2,6-5.9,16.5-4.2,21.7,1.9,6.3,7.3,4.4,18.9-1.5,25.8-.8.9-.1,2.9,1.3,2.3,8.2-3.4,21.3-6.2,25.7,4.3,3.5,8.4-1.2,17.5-9.5,20.7a23.831,23.831,0,0,1-15.6.2c-1.7-.5-2.4,2.1-.7,2.7,9.7,3.1,22.5.7,27.6-9C-1048.1,238-1051.2,225.9-1061.2,222.8Z" fill="#ff001c"/>
    <path id="Path_129" data-name="Path 129" d="M-971.7,136.2c-4.8-1.3-9,1.6-11.5,5.4-3,4.4-3.1,9.6-3.6,14.8s-1.9,10.2-6.5,13.3c-4.5,3-9.9,3.7-15.2,3.9-6,.3-12,.2-17.7,1.9a39.4,39.4,0,0,0-13.7,7.3c-4.1,3.4-7.9,7.8-9.5,12.9a18.409,18.409,0,0,0,1.8,14.5c5.4,10.1,16.2,14.4,25.6,20,4.6,2.7,8.9,5.9,11.8,10.5,2.6,4.1,4.1,9.1,2.6,13.8-2.8,8.7-13.5,10.4-21.3,10.1-5.8-.2-11.4-1.8-17.2-1.7a24.587,24.587,0,0,0-15,5.2c-8.1,6.3-13.1,16.5-15,26.5a53.939,53.939,0,0,0,3.1,30.5,54.478,54.478,0,0,0,3.5,6.8c1.1,1.8,3.9.1,2.8-1.6-10.6-16.9-9.8-41.7,4.2-56.6a22.654,22.654,0,0,1,13.3-7.3c5.9-.8,11.9.8,17.7,1.3,8,.8,17.8-.2,23.6-6.5,7-7.6,4.1-18.4-1.9-25.5-7.1-8.4-18.2-11.5-26.7-17.9-4-3-7.7-7.1-9.4-11.9-1.8-5.2-.7-10.1,2.5-14.5,6.2-8.7,16.4-13.5,26.9-14.2,10.1-.7,22.5.4,29.4-8.7,3.2-4.3,3.6-9.7,4.1-14.8.4-4.8,1.3-9.7,5.2-12.9a6.088,6.088,0,0,1,5.6-1.4C-970.6,139.9-969.7,136.8-971.7,136.2Z" fill="#ff001c"/>
    <path id="Path_131" data-name="Path 131" d="M-1010.1,443.2c-3.9-1.6-8-2.2-12.1-2.9-3.8-.7-7.8-1.7-10.5-4.7-3.1-3.4-3.4-8.4-2-12.6a23.641,23.641,0,0,1,8.4-11.3c4.1-3.1,9.2-5.1,14.4-4.2,2,.3,2.9-2.8.9-3.1-10.5-1.7-20.8,5.4-25.4,14.5-2.3,4.7-3.1,10.1-1,15,1.9,4.5,5.8,7.2,10.4,8.6,5.1,1.5,10.5,1.5,15.4,3.6a1.734,1.734,0,0,0,2.2-.6A1.9,1.9,0,0,0-1010.1,443.2Z" fill="#ff001c"/>
    <path id="Path_133" data-name="Path 133" d="M-1038.2,147a67.136,67.136,0,0,0-27,26.1c-1,1.8,1.6,3.6,2.7,1.8a63.756,63.756,0,0,1,25.7-25C-1034.9,148.9-1036.3,146-1038.2,147Z" fill="#ff001c"/>
    <path id="Path_138" data-name="Path 138" d="M-1013.1,333.8a70.965,70.965,0,0,0-19.2-34.9c-1.5-1.5-3.7,1-2.2,2.4a69.02,69.02,0,0,1,18.2,33.5C-1015.7,336.9-1012.6,335.9-1013.1,333.8Z" fill="#ff001c"/>
    <path id="Path_140" data-name="Path 140" d="M-1024.8,356.5a15.435,15.435,0,0,0-10,5.1,25.887,25.887,0,0,0-3.7,5.6,16.185,16.185,0,0,0-17.2-6.7,15.592,15.592,0,0,0-9.7,7.3,16.84,16.84,0,0,0-2,4.8,12.277,12.277,0,0,0-3.3-3.9,9.31,9.31,0,0,0-11.4-.3c-6.9,5.3-8.3,16-5.9,23.8.8,2.7,5,1.3,4.2-1.4-1.8-5.9-1-13.9,3.7-18.3a4.983,4.983,0,0,1,7.2,0c2.6,2.3,3.4,6,4.3,9.2.5,2,4,1.9,4.2-.2.8-6.8,2.1-14.3,9.5-16.6a11.441,11.441,0,0,1,14.4,8.1,2.187,2.187,0,0,0,4,.3c2.3-5.1,5-11.2,11.2-12.3a10.44,10.44,0,0,1,12.1,8.5,2.291,2.291,0,0,0,2.3,2.1,2.219,2.219,0,0,0,2.1-2.3C-1010.2,361.6-1016.9,355.8-1024.8,356.5Z" fill="#ff001c"/>
  </g>
</svg>
