<svg xmlns="http://www.w3.org/2000/svg" width="46.14" height="72.168" viewBox="0 0 46.14 72.168">
  <g id="Group_44" data-name="Group 44" transform="translate(414.76 -266.832)">
    <g id="Group_41" data-name="Group 41">
      <path id="Path_33" data-name="Path 33" d="M-379.9,297.9a54.413,54.413,0,0,1-12.1,1.8c-5.8.4-12.2.6-16.6-3.2-3-2.6-4.4-6.6-5.2-10.5a49.841,49.841,0,0,1-.9-12.2c.1-2.1.9-4.7,3-4.9,1.9-.1,3.1,2,3.6,3.9a30.964,30.964,0,0,1,.9,6.1,15.433,15.433,0,0,0,.6,4.8,3.469,3.469,0,0,0,3.8,2.3,3.516,3.516,0,0,0,2.2-3,17.223,17.223,0,0,0-.4-3.9c-.5-3-.4-6.3,1.4-8.8s5.8-3.4,8-1.4c2,1.9,1.8,5,2,7.7s1.7,6,4.4,6c2.8-.1,4-3.7,4-6.5-.1-2.8-.5-6.1,1.5-8.1,2-1.9,5.4-1.3,7.4.5,2,1.9,2.8,4.7,3.2,7.4C-367.6,286.1-369.2,294.5-379.9,297.9Z" fill="#ff302d"/>
    </g>
    <g id="Group_42" data-name="Group 42">
      <path id="Path_34" data-name="Path 34" d="M-384.2,339c2.2-.3,4.3-.7,6.5-1a2.246,2.246,0,0,0,1.4-.6,1.486,1.486,0,0,0,.2-.9,101.178,101.178,0,0,0-6.5-46.2,2.379,2.379,0,0,0-.9-1.3,2.515,2.515,0,0,0-1.5-.1,36.971,36.971,0,0,0-4.8.7c2.8,7.1,5.6,11.7,6.2,19.4C-383.3,311.9-381.5,338.6-384.2,339Z" fill="#bcdbff"/>
    </g>
    <g id="Group_43" data-name="Group 43">
      <path id="Path_35" data-name="Path 35" d="M-393.2,295.6a28.789,28.789,0,0,1-11.5-2.5,13.183,13.183,0,0,1-3.4-2,12.61,12.61,0,0,1-3.3-5.2,24.131,24.131,0,0,1-1.3-11.6l1.2.2a22.875,22.875,0,0,0,1.2,11,11.822,11.822,0,0,0,2.9,4.7,10.881,10.881,0,0,0,3.1,1.8c6.9,3,14,3.2,19.5.6l.5,1.1A21.141,21.141,0,0,1-393.2,295.6Z" fill="#bcdbff"/>
    </g>
  </g>
</svg>
