<svg xmlns="http://www.w3.org/2000/svg" width="31.754" height="20.29" viewBox="0 0 31.754 20.29">
  <g id="Group_115" data-name="Group 115" transform="translate(593.424 -286.453)">
    <path id="Path_102" data-name="Path 102" d="M-586,289.2a7.489,7.489,0,0,0-5.8,3.2,10.843,10.843,0,0,0-1.5,4.7,9.761,9.761,0,0,0,1.1,6.5,7.294,7.294,0,0,0,8.8,2.6,8,8,0,0,0,4.5-8.1c.7,2.6,1.7,5.6,4.2,6.5,2.1.7,4.4-.3,6-1.8a11.2,11.2,0,0,0,1.5-14,4.891,4.891,0,0,0-1.6-1.6,5.759,5.759,0,0,0-6.6.7A12.6,12.6,0,0,0-579,294C-580.6,291.2-582.7,289.1-586,289.2Z" fill="#fff"/>
    <path id="Path_103" data-name="Path 103" d="M-583.6,300.1a3.27,3.27,0,0,0,1.5,1.1c4,1.6,7.4-3.4,4.1-6.3C-581.4,291.9-586,296.7-583.6,300.1Z" fill="#ff302d"/>
    <path id="Path_104" data-name="Path 104" d="M-568.6,300.1a3.27,3.27,0,0,0,1.5,1.1c4,1.6,7.4-3.4,4.1-6.3C-566.3,291.9-571,296.7-568.6,300.1Z" fill="#ff302d"/>
  </g>
</svg>
