<svg xmlns="http://www.w3.org/2000/svg" width="30.2" height="37.6" viewBox="0 0 30.2 37.6">
  <path id="Hand" d="M-510.9,171.8a8.808,8.808,0,0,0-3.6.6c1.6,4.7,3.3,9.3,4.9,14a1.612,1.612,0,0,1-1.3.6,114.008,114.008,0,0,1-8.3-16.8c-1.3.6-2.7,1.3-4,1.9,2.2,4.6,4.4,9.3,6.7,13.9.5,1,.6,2.5-.4,2.7-.6.1-1.1-.5-1.5-1-2.3-3.4-4.7-6.7-7-10.1a13.6,13.6,0,0,0-3.8,2.4,102.6,102.6,0,0,0,10.8,17.6c-2.9-1.4-5.8-2.7-8.7-4.1-1.1,1.2-2.3,2.4-3.4,3.6,3.3,2.2,6.8,4.2,10,6.5,1.7,1.3,4,4.2,6.4,4.2,1.8,0,13.7-13.4,13.8-13.3A69.285,69.285,0,0,1-510.9,171.8Z" transform="translate(530.5 -170.2)" fill="#ff302d"/>
</svg>
