<svg xmlns="http://www.w3.org/2000/svg" id="Layer_2" data-name="Layer 2" viewBox="0 0 1584 357.94"><defs><style>      .cls-1 {        fill: #030219;      }      .cls-2 {        fill: #ff0021;      }    </style></defs><g id="Layer_1-2" data-name="Layer 1"><path class="cls-2" d="m0,9.68v338.59h338.59V9.68H0Zm98.85,250.28h-55.64v-1.5c6.77-1.69,9.37-8.07,9.37-18.74v-124.29c0-10.67-2.6-17.05-9.37-18.74v-1.43h55.64v164.71Zm51.6,0h-30.65v-2.93h5.92c17.96,0,27.59-18.03,27.59-44.06s-8.33-42.88-29.61-42.88h-3.9v-2.93h3.9c17.38,0,23.1-16.59,23.1-34.82,0-17.18-5.73-34.23-20.76-34.23h-6.25v-2.86h28.05c31.17,0,46.66,15.55,46.66,36.25,0,16.46-10.09,32.8-44.06,36.51,33.84,3.19,50.69,18.55,50.69,46.4,0,23.56-17.18,45.55-50.69,45.55Zm124.88,2.73c-72.82,0-26.16-92.21-61.37-92.21v-2.86h5.14c11,0,20.56-8.52,20.56-36.44,0-17.64-5.08-34.1-22.84-34.1h-2.86v-1.82h27.72c29.48,0,44.19,16.98,44.19,37.55,0,28.57-22.78,36.38-51.54,36.38,57.79,11.84,35.21,74.45,63.12,84.66,0,0-3.9,8.85-22.13,8.85Z"></path><g><g><path class="cls-1" d="m725.72,69.18v33.06l-2.21-.98c-2.93-1.24-5.92-2.15-9.11-2.67-3.19-.52-6.44-.85-9.57-.85-9.24,0-17.51,2.54-24.6,7.42-7.16,4.95-12.88,12.17-17.05,21.47v113.04h-35.99V82.78h1.37l34.62-13.93v18.61c4.82-6.05,10.48-11.06,17.05-14.84,8.07-4.62,17.25-6.96,27.2-6.96,7.09.26,12.89,1.3,17.31,3.12l.98.39Z"></path><path class="cls-1" d="m863.16,82.13c-12.17-10.48-29.41-15.81-51.34-15.81-11.26,0-22.52,1.43-33.51,4.16-11,2.73-22.97,7.16-35.66,13.02l-1.5.72,13.54,27.53,1.43-.72c10.22-4.75,19.46-8.26,27.59-10.54,8.13-2.21,16.07-3.38,23.49-3.38,12.88,0,22.71,2.86,29.28,8.46,6.44,5.53,9.76,14.19,9.76,25.64v15.23c-13.54-5.73-28.31-8.66-43.93-8.66-21.21,0-38.2,4.69-50.5,13.93-12.36,9.37-18.61,22.32-18.61,38.52,0,10.28,2.73,19.52,8.13,27.4,5.34,7.87,12.88,14.06,22.26,18.48,9.37,4.3,20.3,6.51,32.47,6.51,10.15,0,19.72-1.43,28.37-4.36,7.68-2.54,14.97-6.38,21.8-11.32v12.75h35.34v-112.38c0-19.46-6.18-34.62-18.42-45.16Zm-16.92,91.3v26.49c-5.79,5.08-12.17,8.85-19.07,11.19-7.09,2.41-15.03,3.64-23.56,3.64-10.74,0-19.52-2.34-26.1-7.03-6.51-4.62-9.63-10.61-9.63-18.22,0-8,3.12-14.19,9.63-18.81,6.57-4.69,15.81-7.09,27.4-7.09,8.39,0,16.01.85,22.71,2.47,6.44,1.5,12.69,3.97,18.61,7.35Z"></path><path class="cls-1" d="m1057.48,133.14v106.53h-36.05v-100.93c0-12.62-3.51-22.65-10.48-29.8-6.96-7.16-16.92-10.8-29.54-10.8-8.46,0-16.14,1.76-22.78,5.34-6.57,3.51-12.1,8.59-16.53,15.16v121.04h-35.99V83.36l34.29-13.73h1.63l.06,1.63v13.08c12.82-11.91,29.09-17.96,48.55-17.96,13.15,0,24.79,2.8,34.69,8.33,10.09,5.73,17.77,13.41,23.56,23.56,5.66,10.02,8.59,21.8,8.59,34.88Z"></path><path class="cls-1" d="m1209.43,14.51v67.61c-6.57-4.62-13.8-8.26-21.41-10.8-8.72-2.86-17.77-4.36-27.07-4.36-15.94,0-30.72,3.97-43.73,11.71-13.08,7.74-23.62,18.29-31.24,31.37-7.68,13.15-11.52,28.05-11.52,44.45s3.77,31.37,11.32,44.51c7.55,13.21,18.03,23.82,31.04,31.56,13.15,7.81,27.72,11.71,43.47,11.71,18.94,0,35.6-5.66,49.46-16.79v14.19h35.73V0l-36.05,14.51Zm0,176.74c-5.21,6.12-11.65,10.87-19.13,14.12-7.74,3.38-16.4,5.14-25.77,5.14-10.15,0-19.46-2.54-27.66-7.48-8.26-4.95-14.9-11.78-19.72-20.24-4.88-8.39-7.35-18.09-7.35-28.63s2.47-20.17,7.35-28.57c4.82-8.33,11.45-14.97,19.72-19.85,8.2-4.88,17.51-7.35,27.66-7.35,9.37,0,18.03,1.82,25.7,5.27,7.55,3.38,13.99,8,19.2,13.73v73.86Z"></path><g><path class="cls-1" d="m1369.06,68.78l.98.39v33.06l-2.28-.98c-2.86-1.24-5.86-2.15-9.11-2.67-3.19-.52-6.38-.85-9.57-.85-9.18,0-17.44,2.54-24.6,7.42-7.16,4.95-12.82,12.17-16.98,21.47v113.04h-36.05V82.78h1.37l34.69-13.93v18.61c4.75-6.05,10.48-11.06,16.98-14.84,8.13-4.62,17.31-6.96,27.27-6.96,7.03.26,12.89,1.3,17.31,3.12Z"></path><path class="cls-1" d="m1423.65,16.27c4.43,4.29,6.64,9.63,6.64,15.94s-2.21,11.39-6.57,15.88c-4.36,4.49-9.83,6.77-16.14,6.77s-11.39-2.28-15.75-6.77c-4.36-4.49-6.64-9.83-6.64-15.88s2.28-11.65,6.64-15.94c4.36-4.23,9.7-6.38,15.75-6.38s11.71,2.15,16.07,6.38Z"></path><polygon class="cls-1" points="1425.58 65.94 1425.58 239.69 1389.6 239.69 1389.6 80.52 1390.96 79.87 1425.58 65.94"></polygon><path class="cls-1" d="m1565.58,82.13c-12.1-10.48-29.41-15.81-51.34-15.81-11.19,0-22.52,1.43-33.51,4.16-11,2.73-22.97,7.16-35.66,13.02l-1.5.72,13.54,27.53,1.43-.72c10.22-4.75,19.52-8.26,27.66-10.54,8.07-2.21,16.01-3.38,23.49-3.38,12.82,0,22.65,2.86,29.22,8.46,6.44,5.53,9.76,14.19,9.76,25.64v15.23c-13.54-5.73-28.31-8.66-43.93-8.66-21.21,0-38.2,4.69-50.43,13.93-12.43,9.37-18.68,22.32-18.68,38.52,0,10.28,2.73,19.52,8.13,27.4,5.4,7.87,12.88,14.06,22.26,18.48,9.37,4.3,20.3,6.51,32.47,6.51,10.22,0,19.72-1.43,28.37-4.36,7.68-2.54,14.97-6.38,21.8-11.32v12.75h35.34v-112.38c0-19.46-6.18-34.62-18.42-45.16Zm-16.92,91.3v26.49c-5.79,5.08-12.17,8.85-19.07,11.19-7.09,2.41-15.03,3.64-23.56,3.64-10.74,0-19.52-2.34-26.1-7.03-6.44-4.62-9.63-10.61-9.63-18.22,0-8,3.19-14.19,9.63-18.81,6.57-4.69,15.81-7.09,27.4-7.09,8.39,0,16.01.85,22.78,2.47,6.38,1.5,12.62,3.97,18.55,7.35Z"></path></g></g><path class="cls-1" d="m599.23,110.86c-7.46-12.83-17.57-23.15-30.33-30.75-12.76-7.67-26.99-11.51-42.75-11.51-19.87,0-36.82,6.14-50.76,18.34V2.43l-32.77,13.18v222.44h32.43v-14.43c.14.07.21.14.35.21,7.11,5.37,14.92,9.55,23.43,12.41,8.58,2.93,17.5,4.39,26.71,4.39,15.9,0,30.26-3.84,43.09-11.44,12.76-7.67,22.94-17.99,30.47-30.96,7.53-13.04,11.3-27.61,11.3-43.79s-3.77-30.68-11.16-43.58Zm-28.52,73.29c-5.02,8.58-11.71,15.41-20.15,20.43-8.44,5.02-17.99,7.53-28.66,7.53-9.2,0-17.85-1.74-26.08-5.23-8.16-3.49-14.99-8.3-20.43-14.43v-75.31c5.44-6.35,12.2-11.3,20.29-14.78s16.81-5.23,26.22-5.23c10.67,0,20.22,2.51,28.66,7.53,8.44,5.02,15.13,11.92,20.15,20.64,5.02,8.72,7.53,18.55,7.53,29.5s-2.51,20.71-7.53,29.36Z"></path></g><g><path class="cls-1" d="m439.08,339.28v-61.04h9.42l20.84,43.34,20.75-43.34h9.42v61.04h-6.36v-53.36l-23.89,49-23.89-48.91v53.27h-6.28Z"></path><path class="cls-1" d="m532.21,340.06c-4.19,0-7.98-1-11.38-3.01-3.4-2-6.1-4.72-8.11-8.15-2.01-3.43-3.01-7.26-3.01-11.51s.96-7.98,2.88-11.38c1.92-3.41,4.51-6.11,7.76-8.12,3.25-2,6.89-3.01,10.9-3.01s7.4,1,10.5,3.01c3.11,2.01,5.58,4.71,7.41,8.12,1.83,3.4,2.75,7.19,2.75,11.38v2.01h-35.84c.35,2.85,1.26,5.4,2.75,7.67,1.48,2.27,3.42,4.05,5.8,5.36,2.38,1.31,5,1.96,7.85,1.96,2.27,0,4.47-.35,6.63-1.05,2.15-.7,3.95-1.68,5.4-2.97l4.01,4.28c-2.44,1.8-4.99,3.15-7.63,4.05-2.65.9-5.54,1.35-8.67,1.35Zm-15.96-25.81h29.21c-.35-2.62-1.21-4.96-2.57-7.02-1.37-2.07-3.07-3.69-5.1-4.89-2.04-1.19-4.27-1.79-6.71-1.79s-4.79.58-6.89,1.74c-2.09,1.16-3.84,2.78-5.23,4.84-1.39,2.07-2.29,4.43-2.7,7.1Z"></path><path class="cls-1" d="m580.86,339.98c-4.07,0-7.78-1-11.12-3.01-3.34-2-5.99-4.71-7.93-8.11-1.95-3.4-2.92-7.22-2.92-11.46s.97-8.05,2.92-11.42c1.95-3.37,4.59-6.06,7.93-8.07,3.34-2,7.08-3.01,11.2-3.01,2.56,0,5.03.43,7.41,1.26,2.38.85,4.56,2.08,6.54,3.7v-21.63l6.45-1.48v62.52h-6.36v-4.62c-3.84,3.55-8.55,5.32-14.13,5.32Zm.61-5.67c2.73,0,5.27-.54,7.63-1.61,2.35-1.07,4.29-2.57,5.8-4.49v-21.62c-1.51-1.86-3.44-3.33-5.8-4.4-2.35-1.07-4.9-1.61-7.63-1.61-3.02,0-5.77.72-8.24,2.18-2.47,1.46-4.42,3.44-5.84,5.97-1.42,2.53-2.14,5.39-2.14,8.59s.71,6.08,2.14,8.64c1.42,2.55,3.37,4.59,5.84,6.1,2.47,1.51,5.22,2.27,8.24,2.27Z"></path><path class="cls-1" d="m615.57,287.23c-1.16,0-2.18-.44-3.05-1.31-.87-.87-1.31-1.92-1.31-3.14s.44-2.17,1.31-3.01c.87-.85,1.89-1.26,3.05-1.26,1.22,0,2.25.42,3.09,1.26.84.84,1.26,1.87,1.26,3.09s-.42,2.18-1.26,3.05-1.87,1.31-3.09,1.31Zm-3.23,52.05v-43.68h6.45v43.68h-6.45Z"></path><path class="cls-1" d="m643.56,340.06c-3.2,0-6.01-.55-8.42-1.65-2.41-1.11-4.3-2.64-5.67-4.62-1.37-1.98-2.05-4.28-2.05-6.89,0-4.13,1.57-7.38,4.71-9.77s7.38-3.58,12.73-3.58c4.71,0,8.98.99,12.82,2.97v-5.76c0-3.49-.99-6.11-2.96-7.89-1.98-1.77-4.86-2.66-8.63-2.66-2.15,0-4.32.31-6.49.92-2.18.61-4.58,1.58-7.19,2.92l-2.44-4.97c3.14-1.51,6.04-2.62,8.72-3.32,2.67-.69,5.35-1.04,8.02-1.04,5.52,0,9.78,1.3,12.77,3.92,2.99,2.62,4.49,6.37,4.49,11.25v29.39h-6.28v-4.27c-1.98,1.68-4.14,2.95-6.49,3.79-2.35.84-4.9,1.26-7.63,1.26Zm-9.94-13.34c0,2.44,1.03,4.44,3.09,5.97,2.07,1.54,4.72,2.31,7.98,2.31,2.62,0,5-.41,7.15-1.22,2.15-.81,4.1-2.1,5.84-3.84v-8.2c-1.8-1.22-3.72-2.1-5.75-2.66-2.04-.55-4.33-.83-6.89-.83-3.49,0-6.26.78-8.33,2.31-2.06,1.54-3.09,3.59-3.09,6.15Z"></path><path class="cls-1" d="m696.75,287.23c-1.16,0-2.18-.44-3.05-1.31-.87-.87-1.31-1.92-1.31-3.14s.44-2.17,1.31-3.01c.87-.85,1.89-1.26,3.05-1.26,1.22,0,2.25.42,3.09,1.26.84.84,1.26,1.87,1.26,3.09s-.42,2.18-1.26,3.05c-.84.87-1.87,1.31-3.09,1.31Zm-3.23,52.05v-43.68h6.45v43.68h-6.45Z"></path><path class="cls-1" d="m710.96,339.28v-43.68h6.45v5.14c3.43-4.01,8.02-6.01,13.77-6.01,3.31,0,6.23.71,8.76,2.14,2.53,1.42,4.51,3.4,5.93,5.93,1.42,2.53,2.14,5.48,2.14,8.85v27.64h-6.37v-26.34c0-3.89-1.09-6.96-3.27-9.2s-5.16-3.36-8.94-3.36c-2.62,0-4.94.58-6.97,1.74-2.03,1.16-3.72,2.82-5.06,4.97v32.18h-6.45Z"></path><path class="cls-1" d="m774.7,340.15c-3.78,0-6.69-.9-8.72-2.7-2.04-1.8-3.05-4.42-3.05-7.85v-28.51h-9.41v-5.49h9.41v-11.08l6.36-1.65v12.73h13.17v5.49h-13.17v26.86c0,2.33.52,4,1.57,5.01,1.05,1.02,2.76,1.53,5.14,1.53,1.22,0,2.31-.08,3.27-.26.96-.17,1.99-.46,3.09-.87v5.67c-1.11.41-2.34.7-3.71.87-1.37.17-2.69.26-3.97.26Z"></path><path class="cls-1" d="m808.97,340.06c-4.19,0-7.98-1-11.38-3.01-3.4-2-6.1-4.72-8.11-8.15-2.01-3.43-3.01-7.26-3.01-11.51s.96-7.98,2.88-11.38c1.92-3.41,4.51-6.11,7.76-8.12,3.25-2,6.89-3.01,10.9-3.01s7.4,1,10.5,3.01c3.11,2.01,5.58,4.71,7.41,8.12,1.83,3.4,2.75,7.19,2.75,11.38v2.01h-35.84c.35,2.85,1.26,5.4,2.75,7.67,1.48,2.27,3.42,4.05,5.8,5.36,2.38,1.31,5,1.96,7.85,1.96,2.27,0,4.47-.35,6.63-1.05,2.15-.7,3.95-1.68,5.4-2.97l4.01,4.28c-2.44,1.8-4.99,3.15-7.63,4.05-2.65.9-5.54,1.35-8.67,1.35Zm-15.96-25.81h29.21c-.35-2.62-1.21-4.96-2.57-7.02-1.37-2.07-3.07-3.69-5.1-4.89-2.04-1.19-4.27-1.79-6.71-1.79s-4.79.58-6.89,1.74c-2.09,1.16-3.84,2.78-5.23,4.84-1.39,2.07-2.29,4.43-2.7,7.1Z"></path><path class="cls-1" d="m837.66,339.28v-61.04l6.45-1.48v62.52h-6.45Z"></path><path class="cls-1" d="m855.1,339.28v-61.04l6.45-1.48v62.52h-6.45Z"></path><path class="cls-1" d="m875.76,287.23c-1.16,0-2.18-.44-3.05-1.31-.87-.87-1.31-1.92-1.31-3.14s.44-2.17,1.31-3.01c.87-.85,1.89-1.26,3.05-1.26,1.22,0,2.26.42,3.1,1.26s1.26,1.87,1.26,3.09-.42,2.18-1.26,3.05c-.85.87-1.88,1.31-3.1,1.31Zm-3.22,52.05v-43.68h6.45v43.68h-6.45Z"></path><path class="cls-1" d="m911.25,357.94c-3.02,0-6.01-.39-8.98-1.18-2.96-.78-5.67-1.91-8.11-3.36l2.79-5.06c2.62,1.4,5.05,2.41,7.28,3.05,2.24.64,4.49.96,6.76.96,4.13,0,7.26-.99,9.42-2.96,2.15-1.98,3.23-4.89,3.23-8.72v-6.11c-4.02,3.37-8.64,5.06-13.87,5.06-4.01,0-7.67-.99-10.99-2.97-3.31-1.97-5.94-4.66-7.89-8.06-1.94-3.4-2.92-7.19-2.92-11.38s.97-7.98,2.92-11.38c1.95-3.4,4.58-6.09,7.89-8.06,3.32-1.98,7.04-2.97,11.16-2.97,2.5,0,4.93.44,7.28,1.31,2.36.87,4.52,2.15,6.49,3.84v-4.36h6.37v44.99c0,5.58-1.63,9.86-4.88,12.86-3.26,2.99-7.91,4.49-13.96,4.49Zm-.96-23.98c2.79,0,5.35-.52,7.68-1.57,2.33-1.05,4.21-2.53,5.67-4.45v-21.45c-1.46-1.86-3.36-3.31-5.71-4.36-2.36-1.05-4.9-1.57-7.63-1.57-3.02,0-5.74.72-8.15,2.18-2.41,1.46-4.32,3.44-5.71,5.97-1.4,2.53-2.1,5.36-2.1,8.5s.71,5.97,2.14,8.5c1.42,2.53,3.34,4.54,5.75,6.02,2.41,1.48,5.1,2.22,8.06,2.22Z"></path><path class="cls-1" d="m961.56,340.06c-4.19,0-7.98-1-11.38-3.01-3.4-2-6.1-4.72-8.11-8.15-2-3.43-3.01-7.26-3.01-11.51s.96-7.98,2.88-11.38c1.91-3.41,4.5-6.11,7.76-8.12,3.25-2,6.89-3.01,10.9-3.01s7.4,1,10.5,3.01c3.11,2.01,5.58,4.71,7.42,8.12,1.83,3.4,2.75,7.19,2.75,11.38v2.01h-35.84c.35,2.85,1.26,5.4,2.75,7.67,1.48,2.27,3.41,4.05,5.8,5.36,2.38,1.31,5,1.96,7.85,1.96,2.27,0,4.47-.35,6.63-1.05,2.15-.7,3.95-1.68,5.4-2.97l4.02,4.28c-2.45,1.8-4.99,3.15-7.63,4.05-2.64.9-5.54,1.35-8.67,1.35Zm-15.96-25.81h29.21c-.35-2.62-1.21-4.96-2.57-7.02-1.37-2.07-3.07-3.69-5.1-4.89-2.03-1.19-4.27-1.79-6.72-1.79s-4.79.58-6.89,1.74c-2.09,1.16-3.83,2.78-5.23,4.84-1.39,2.07-2.29,4.43-2.7,7.1Z"></path><path class="cls-1" d="m990.24,339.28v-43.68h6.46v5.14c3.43-4.01,8.02-6.01,13.78-6.01,3.31,0,6.23.71,8.76,2.14,2.52,1.42,4.5,3.4,5.93,5.93,1.42,2.53,2.14,5.48,2.14,8.85v27.64h-6.37v-26.34c0-3.89-1.09-6.96-3.27-9.2-2.18-2.24-5.16-3.36-8.94-3.36-2.61,0-4.94.58-6.97,1.74-2.04,1.16-3.72,2.82-5.06,4.97v32.18h-6.46Z"></path><path class="cls-1" d="m1058.35,340.06c-4.13,0-7.88-1-11.25-3.01-3.37-2-6.05-4.72-8.03-8.15-1.98-3.43-2.96-7.26-2.96-11.51s.99-8.06,2.96-11.46c1.98-3.4,4.65-6.12,8.03-8.15,3.37-2.03,7.12-3.05,11.25-3.05,3.2,0,6.28.6,9.24,1.79,2.97,1.19,5.58,2.89,7.85,5.1l-4.1,4.71c-1.74-1.86-3.74-3.27-5.97-4.23-2.24-.96-4.55-1.44-6.93-1.44-2.96,0-5.65.74-8.06,2.22-2.41,1.48-4.33,3.48-5.75,6.01-1.43,2.53-2.14,5.36-2.14,8.5s.71,5.99,2.14,8.55c1.42,2.55,3.36,4.58,5.8,6.06,2.44,1.49,5.15,2.22,8.11,2.22,2.38,0,4.63-.46,6.76-1.39,2.12-.93,4.11-2.3,5.97-4.1l4.01,4.36c-2.32,2.21-4.94,3.92-7.84,5.14-2.91,1.22-5.93,1.83-9.07,1.83Z"></path><path class="cls-1" d="m1102.04,340.06c-4.19,0-7.98-1-11.38-3.01-3.4-2-6.1-4.72-8.11-8.15-2-3.43-3.01-7.26-3.01-11.51s.96-7.98,2.88-11.38c1.91-3.41,4.5-6.11,7.76-8.12,3.25-2,6.89-3.01,10.9-3.01s7.4,1,10.5,3.01c3.11,2.01,5.58,4.71,7.42,8.12,1.83,3.4,2.75,7.19,2.75,11.38v2.01h-35.84c.35,2.85,1.26,5.4,2.75,7.67,1.48,2.27,3.41,4.05,5.8,5.36,2.38,1.31,5,1.96,7.85,1.96,2.27,0,4.47-.35,6.63-1.05,2.15-.7,3.95-1.68,5.4-2.97l4.02,4.28c-2.45,1.8-4.99,3.15-7.63,4.05s-5.54,1.35-8.67,1.35Zm-15.96-25.81h29.21c-.35-2.62-1.21-4.96-2.57-7.02-1.37-2.07-3.07-3.69-5.1-4.89-2.03-1.19-4.27-1.79-6.72-1.79s-4.79.58-6.89,1.74c-2.09,1.16-3.83,2.78-5.23,4.84-1.39,2.07-2.29,4.43-2.7,7.1Z"></path><path class="cls-1" d="m1166.39,340.24c-4.01,0-7.52-.73-10.55-2.18-3.02-1.46-5.38-3.49-7.06-6.11-1.69-2.61-2.53-5.64-2.53-9.07,0-2.44.42-4.63,1.26-6.58.84-1.95,2.25-3.79,4.23-5.54,1.98-1.74,4.65-3.55,8.02-5.4-2.03-2.56-3.47-4.9-4.32-7.02-.84-2.12-1.26-4.35-1.26-6.67,0-2.73.64-5.19,1.92-7.37,1.28-2.18,3.04-3.9,5.27-5.15,2.24-1.25,4.75-1.87,7.54-1.87s5.05.54,7.1,1.61c2.07,1.08,3.69,2.56,4.89,4.45,1.19,1.89,1.79,4.09,1.79,6.58,0,2.85-.78,5.41-2.35,7.67-1.57,2.27-4.04,4.39-7.42,6.37l-4.36,2.62c2.38,2.68,5,5.4,7.85,8.19,2.85,2.8,5.76,5.55,8.72,8.29,1.46-2.33,2.66-4.88,3.62-7.68.96-2.79,1.73-5.69,2.31-8.72l5.93.96c-.76,3.72-1.74,7.19-2.96,10.42s-2.73,6.21-4.54,8.94c1.86,1.63,3.72,3.18,5.58,4.66,1.86,1.49,3.6,2.87,5.24,4.14l-3.93,4.62c-1.63-1.28-3.33-2.62-5.1-4.05-1.78-1.42-3.57-2.89-5.36-4.4-2.5,2.68-5.42,4.73-8.76,6.15-3.34,1.42-6.93,2.14-10.77,2.14Zm.35-5.49c2.9,0,5.62-.57,8.15-1.7,2.53-1.13,4.78-2.78,6.76-4.93-3.37-3.08-6.65-6.21-9.85-9.37-3.2-3.17-6.08-6.23-8.63-9.2-2.73,1.46-4.9,2.85-6.5,4.19-1.6,1.33-2.71,2.71-3.36,4.14-.64,1.42-.96,3.04-.96,4.84,0,3.6,1.32,6.51,3.97,8.72,2.65,2.21,6.12,3.32,10.42,3.32Zm-1.57-32.18l4.97-2.88c2.15-1.28,3.76-2.71,4.84-4.28,1.07-1.57,1.61-3.34,1.61-5.32,0-2.15-.76-3.95-2.27-5.4-1.51-1.46-3.37-2.18-5.58-2.18-2.44,0-4.46.84-6.06,2.53-1.6,1.68-2.4,3.86-2.4,6.54,0,1.8.36,3.53,1.09,5.19.73,1.66,2,3.59,3.79,5.8Z"></path><path class="cls-1" d="m1246.17,340.15c-4.82,0-9.44-.97-13.86-2.92-4.42-1.95-8.32-4.75-11.69-8.42l4.45-4.62c3.14,3.37,6.49,5.9,10.07,7.59,3.58,1.68,7.34,2.53,11.29,2.53,3.2,0,6.03-.51,8.5-1.53,2.47-1.02,4.4-2.44,5.8-4.28,1.39-1.83,2.09-3.91,2.09-6.23,0-3.14-1.09-5.55-3.27-7.23-2.18-1.69-5.77-2.94-10.77-3.75l-8.81-1.4c-5.87-.99-10.2-2.73-12.99-5.23-2.8-2.5-4.19-5.9-4.19-10.21,0-3.37.9-6.33,2.7-8.89,1.8-2.55,4.32-4.55,7.54-5.97,3.23-1.42,6.96-2.14,11.2-2.14s8.53.7,12.69,2.09c4.16,1.4,7.94,3.4,11.38,6.02l-3.83,5.23c-6.69-5.06-13.52-7.58-20.49-7.58-2.9,0-5.47.44-7.67,1.35-2.21.9-3.93,2.15-5.15,3.75-1.22,1.6-1.83,3.48-1.83,5.62,0,2.85.96,5.03,2.88,6.54,1.92,1.51,5.08,2.62,9.5,3.32l8.72,1.39c6.69,1.11,11.54,2.98,14.57,5.62,3.02,2.64,4.53,6.36,4.53,11.12,0,3.55-.99,6.7-2.96,9.46-1.98,2.76-4.72,4.91-8.24,6.46-3.51,1.54-7.57,2.31-12.16,2.31Z"></path><path class="cls-1" d="m1298.66,340.15c-4.12,0-7.89-1-11.29-3.01-3.41-2.01-6.09-4.72-8.07-8.15-1.98-3.43-2.96-7.26-2.96-11.51s.99-8.08,2.96-11.51c1.98-3.43,4.66-6.15,8.07-8.15,3.4-2.01,7.16-3.01,11.29-3.01s7.96,1,11.34,3.01c3.37,2,6.04,4.72,8.02,8.15,1.98,3.43,2.97,7.26,2.97,11.51s-.99,8.08-2.97,11.51c-1.98,3.43-4.65,6.15-8.02,8.15-3.37,2-7.15,3.01-11.34,3.01Zm0-5.75c2.97,0,5.66-.76,8.07-2.27,2.41-1.51,4.33-3.55,5.75-6.11,1.42-2.55,2.14-5.4,2.14-8.54s-.71-6.06-2.14-8.59c-1.42-2.53-3.34-4.54-5.75-6.06-2.41-1.51-5.1-2.27-8.07-2.27s-5.65.76-8.06,2.27c-2.41,1.51-4.33,3.53-5.75,6.06-1.43,2.53-2.14,5.4-2.14,8.59s.71,5.99,2.14,8.54c1.42,2.56,3.34,4.59,5.75,6.11,2.41,1.51,5.1,2.27,8.06,2.27Z"></path><path class="cls-1" d="m1329.96,339.28v-61.04l6.46-1.48v62.52h-6.46Z"></path><path class="cls-1" d="m1364.15,340.15c-3.32,0-6.25-.71-8.81-2.14-2.56-1.42-4.55-3.4-5.97-5.93s-2.14-5.48-2.14-8.85v-27.64h6.37v26.34c0,3.89,1.1,6.96,3.31,9.2,2.21,2.24,5.17,3.36,8.9,3.36,2.61,0,4.95-.59,7.02-1.79,2.07-1.19,3.74-2.86,5.01-5.01v-32.09h6.45v43.68h-6.45v-5.06c-3.43,3.95-7.99,5.93-13.69,5.93Z"></path><path class="cls-1" d="m1412.45,340.15c-3.77,0-6.69-.9-8.72-2.7-2.03-1.8-3.05-4.42-3.05-7.85v-28.51h-9.42v-5.49h9.42v-11.08l6.37-1.65v12.73h13.17v5.49h-13.17v26.86c0,2.33.52,4,1.57,5.01,1.04,1.02,2.76,1.53,5.14,1.53,1.22,0,2.31-.08,3.27-.26.96-.17,1.99-.46,3.09-.87v5.67c-1.11.41-2.34.7-3.7.87-1.37.17-2.69.26-3.97.26Z"></path><path class="cls-1" d="m1430.33,287.23c-1.16,0-2.18-.44-3.05-1.31-.87-.87-1.31-1.92-1.31-3.14s.44-2.17,1.31-3.01c.87-.85,1.89-1.26,3.05-1.26,1.22,0,2.25.42,3.09,1.26.85.84,1.26,1.87,1.26,3.09s-.42,2.18-1.26,3.05c-.85.87-1.87,1.31-3.09,1.31Zm-3.23,52.05v-43.68h6.46v43.68h-6.46Z"></path><path class="cls-1" d="m1464.86,340.15c-4.12,0-7.89-1-11.29-3.01-3.41-2.01-6.09-4.72-8.07-8.15-1.98-3.43-2.96-7.26-2.96-11.51s.99-8.08,2.96-11.51c1.98-3.43,4.66-6.15,8.07-8.15,3.4-2.01,7.16-3.01,11.29-3.01s7.96,1,11.34,3.01c3.37,2,6.04,4.72,8.02,8.15,1.98,3.43,2.97,7.26,2.97,11.51s-.99,8.08-2.97,11.51c-1.98,3.43-4.65,6.15-8.02,8.15-3.37,2-7.15,3.01-11.34,3.01Zm0-5.75c2.97,0,5.66-.76,8.07-2.27,2.41-1.51,4.33-3.55,5.75-6.11,1.42-2.55,2.14-5.4,2.14-8.54s-.71-6.06-2.14-8.59c-1.42-2.53-3.34-4.54-5.75-6.06-2.41-1.51-5.1-2.27-8.07-2.27s-5.65.76-8.06,2.27c-2.41,1.51-4.33,3.53-5.75,6.06-1.43,2.53-2.14,5.4-2.14,8.59s.71,5.99,2.14,8.54c1.42,2.56,3.34,4.59,5.75,6.11,2.41,1.51,5.1,2.27,8.06,2.27Z"></path><path class="cls-1" d="m1496.16,339.28v-43.68h6.46v5.14c3.43-4.01,8.02-6.01,13.78-6.01,3.31,0,6.23.71,8.76,2.14,2.52,1.42,4.5,3.4,5.93,5.93,1.42,2.53,2.14,5.48,2.14,8.85v27.64h-6.37v-26.34c0-3.89-1.09-6.96-3.27-9.2-2.18-2.24-5.16-3.36-8.94-3.36-2.61,0-4.94.58-6.97,1.74-2.04,1.16-3.72,2.82-5.06,4.97v32.18h-6.46Z"></path><path class="cls-1" d="m1557.99,340.15c-3.61,0-6.99-.6-10.16-1.79-3.16-1.19-5.92-2.86-8.24-5.01l3.92-4.19c2.03,1.86,4.27,3.3,6.72,4.32,2.44,1.02,4.94,1.53,7.5,1.53,3.48,0,6.33-.73,8.54-2.18,2.21-1.46,3.32-3.34,3.32-5.67,0-1.92-.65-3.41-1.96-4.49-1.31-1.07-3.36-1.82-6.15-2.22l-7.59-1.04c-4.36-.64-7.6-1.95-9.72-3.93-2.12-1.98-3.18-4.65-3.18-8.02,0-2.44.7-4.62,2.09-6.54,1.4-1.92,3.33-3.43,5.8-4.54,2.47-1.1,5.31-1.65,8.5-1.65s6.19.46,8.98,1.39c2.79.93,5.52,2.38,8.2,4.36l-3.4,4.36c-2.45-1.68-4.81-2.92-7.11-3.7-2.29-.78-4.63-1.18-7.02-1.18-3.02,0-5.47.67-7.33,2-1.86,1.34-2.79,3.08-2.79,5.24,0,1.98.64,3.47,1.92,4.49,1.28,1.02,3.34,1.73,6.19,2.14l7.59,1.04c4.36.58,7.63,1.86,9.81,3.84,2.18,1.98,3.27,4.68,3.27,8.11,0,2.5-.78,4.77-2.35,6.8s-3.68,3.64-6.32,4.8c-2.64,1.16-5.66,1.74-9.02,1.74Z"></path></g></g></svg>