<svg xmlns="http://www.w3.org/2000/svg" width="106.479" height="196.785" viewBox="0 0 106.479 196.785">
  <path id="Path_129" data-name="Path 129" d="M-971.7,136.2c-4.8-1.3-9,1.6-11.5,5.4-3,4.4-3.1,9.6-3.6,14.8s-1.9,10.2-6.5,13.3c-4.5,3-9.9,3.7-15.2,3.9-6,.3-12,.2-17.7,1.9a39.4,39.4,0,0,0-13.7,7.3c-4.1,3.4-7.9,7.8-9.5,12.9a18.409,18.409,0,0,0,1.8,14.5c5.4,10.1,16.2,14.4,25.6,20,4.6,2.7,8.9,5.9,11.8,10.5,2.6,4.1,4.1,9.1,2.6,13.8-2.8,8.7-13.5,10.4-21.3,10.1-5.8-.2-11.4-1.8-17.2-1.7a24.587,24.587,0,0,0-15,5.2c-8.1,6.3-13.1,16.5-15,26.5a53.939,53.939,0,0,0,3.1,30.5,54.478,54.478,0,0,0,3.5,6.8c1.1,1.8,3.9.1,2.8-1.6-10.6-16.9-9.8-41.7,4.2-56.6a22.654,22.654,0,0,1,13.3-7.3c5.9-.8,11.9.8,17.7,1.3,8,.8,17.8-.2,23.6-6.5,7-7.6,4.1-18.4-1.9-25.5-7.1-8.4-18.2-11.5-26.7-17.9-4-3-7.7-7.1-9.4-11.9-1.8-5.2-.7-10.1,2.5-14.5,6.2-8.7,16.4-13.5,26.9-14.2,10.1-.7,22.5.4,29.4-8.7,3.2-4.3,3.6-9.7,4.1-14.8.4-4.8,1.3-9.7,5.2-12.9a6.088,6.088,0,0,1,5.6-1.4C-970.6,139.9-969.7,136.8-971.7,136.2Z" transform="translate(1077.03 -135.885)" fill="#ff001c"/>
</svg>
