<svg xmlns="http://www.w3.org/2000/svg" xmlns:xlink="http://www.w3.org/1999/xlink" width="696.753" height="157.512" viewBox="0 0 696.753 157.512">
  <defs>
    <clipPath id="clip-path">
      <path id="Path_577" data-name="Path 577" d="M371.637,330H521V480H371.637Zm0,0"/>
    </clipPath>
    <clipPath id="clip-path-2">
      <path id="Path_586" data-name="Path 586" d="M1003,355h65.39v78H1003Zm0,0"/>
    </clipPath>
  </defs>
  <g id="RedLogo" transform="translate(-371.637 -326.289)">
    <g id="Group_222" data-name="Group 222" clip-path="url(#clip-path)">
      <path id="Path_576" data-name="Path 576" d="M371.637,330.559V479.484H520.563V330.559ZM415.1,440.652H390.621v-.636c3-.727,4.133-3.543,4.133-8.219V377.113c0-4.679-1.133-7.5-4.133-8.222v-.637H415.1V440.7Zm22.711,0H424.324v-1.273h2.586c7.9,0,12.129-7.945,12.129-19.391s-3.68-18.851-13.035-18.851h-1.727v-1.27H426c7.629,0,10.172-7.312,10.172-15.308,0-7.539-2.5-15.032-9.129-15.032h-2.77v-1.273h12.356c13.715,0,20.527,6.859,20.527,15.941,0,7.223-4.453,14.446-19.394,16.078,14.9,1.411,22.3,8.176,22.3,20.395,0,10.355-7.539,20.027-22.3,20.027Zm54.91,1.18c-32.02,0-11.493-40.559-26.981-40.559V400h2.274c4.859,0,9.039-3.77,9.039-16.035,0-7.766-2.227-14.989-10.039-14.989h-1.274v-.816h12.176c12.941,0,19.437,7.449,19.437,16.531,0,12.582-10.039,15.989-22.664,15.989,25.434,5.222,15.489,32.746,27.75,37.242C502.441,437.926,500.715,441.832,492.723,441.832Zm0,0" fill="#ff0021"/>
    </g>
    <path id="Path_578" data-name="Path 578" d="M690.836,356.719v14.535l-.953-.41a17.06,17.06,0,0,0-4-1.18,26.686,26.686,0,0,0-4.227-.363,18.751,18.751,0,0,0-10.808,3.269,22.25,22.25,0,0,0-7.493,9.446V431.75H647.508V362.758h.59l15.215-6.129V364.8a26.411,26.411,0,0,1,7.5-6.543,23.611,23.611,0,0,1,11.945-3.043,24.011,24.011,0,0,1,7.629,1.363l.406.184Zm0,0" fill="#ff0021"/>
    <path id="Path_579" data-name="Path 579" d="M751.289,362.395c-5.359-4.586-12.945-6.946-22.574-6.946a62.4,62.4,0,0,0-14.762,1.817,86.16,86.16,0,0,0-15.668,5.722l-.637.317,5.95,12.125.636-.317a80.578,80.578,0,0,1,12.129-4.633,40.748,40.748,0,0,1,10.352-1.5c5.68,0,9.992,1.274,12.9,3.727,2.813,2.453,4.313,6.223,4.313,11.262v6.676a49.632,49.632,0,0,0-19.3-3.813c-9.313,0-16.805,2.043-22.211,6.129-5.449,4.137-8.176,9.812-8.176,16.941a20.555,20.555,0,0,0,3.59,12.039,24.1,24.1,0,0,0,9.809,8.129,33.893,33.893,0,0,0,14.261,2.86,39.591,39.591,0,0,0,12.489-1.907,35.818,35.818,0,0,0,9.586-5v5.633h15.531V382.242c0-8.535-2.723-15.215-8.082-19.847Zm-7.449,40.152v11.625a24.322,24.322,0,0,1-8.4,4.906,32.838,32.838,0,0,1-10.356,1.59c-4.723,0-8.586-1.043-11.492-3.09a9.3,9.3,0,0,1-4.223-7.992,9.5,9.5,0,0,1,4.223-8.266c2.906-2.043,6.949-3.132,12.035-3.132a42.1,42.1,0,0,1,9.992,1.089,29.05,29.05,0,0,1,8.176,3.223Zm0,0" fill="#ff0021"/>
    <path id="Path_580" data-name="Path 580" d="M836.766,384.832V431.7H820.914V387.332c0-5.543-1.543-9.949-4.586-13.129s-7.449-4.765-12.992-4.765A20.854,20.854,0,0,0,793.3,371.8a20.029,20.029,0,0,0-7.27,6.676V431.7H770.184V362.941l15.078-6.039h.726v6.493c5.633-5.223,12.809-7.9,21.348-7.9a30.72,30.72,0,0,1,15.258,3.68,26.655,26.655,0,0,1,10.355,10.355,30.74,30.74,0,0,1,3.77,15.352Zm0,0" fill="#ff0021"/>
    <path id="Path_581" data-name="Path 581" d="M903.574,332.691v29.75a36.52,36.52,0,0,0-21.3-6.675,37.094,37.094,0,0,0-19.21,5.132,37.7,37.7,0,0,0-13.715,13.8,38.283,38.283,0,0,0-5.09,19.531,38.88,38.88,0,0,0,5,19.575,37.835,37.835,0,0,0,13.672,13.9,36.565,36.565,0,0,0,19.121,5.133,33.824,33.824,0,0,0,21.754-7.4v6.222h15.715V326.289l-15.852,6.4Zm0,77.758a23.342,23.342,0,0,1-8.4,6.223,28.043,28.043,0,0,1-11.356,2.269,23.734,23.734,0,0,1-12.171-3.269,24.3,24.3,0,0,1-8.672-8.9,26.136,26.136,0,0,1,0-25.161,23.832,23.832,0,0,1,8.672-8.722,23.576,23.576,0,0,1,12.171-3.223,27.639,27.639,0,0,1,11.313,2.316,26.054,26.054,0,0,1,8.445,6.04V410.5Zm0,0" fill="#ff0021"/>
    <path id="Path_582" data-name="Path 582" d="M973.793,356.539l.406.18v14.535l-1-.41a17.022,17.022,0,0,0-4-1.18,26.626,26.626,0,0,0-4.223-.363,18.844,18.844,0,0,0-10.808,3.269,22.131,22.131,0,0,0-7.449,9.446V431.75H930.871V362.758h.59l15.262-6.129V364.8a26.257,26.257,0,0,1,7.449-6.543,23.9,23.9,0,0,1,11.988-3.043,24.276,24.276,0,0,1,7.633,1.363Zm0,0" fill="#ff0021"/>
    <path id="Path_583" data-name="Path 583" d="M997.816,333.465a9.35,9.35,0,0,1,2.9,7,9.488,9.488,0,0,1-2.9,6.992,9.635,9.635,0,0,1-7.082,3,9.241,9.241,0,0,1-6.949-3,9.742,9.742,0,0,1-2.91-6.992,9.777,9.777,0,0,1,9.859-9.813A10.058,10.058,0,0,1,997.816,333.465Zm0,0" fill="#ff0021"/>
    <path id="Path_584" data-name="Path 584" d="M998.68,355.313V431.7H982.828V361.715l.594-.317Zm0,0" fill="#ff0021"/>
    <g id="Group_223" data-name="Group 223" clip-path="url(#clip-path-2)">
      <path id="Path_585" data-name="Path 585" d="M1060.27,362.395c-5.32-4.586-12.95-6.946-22.57-6.946a62.713,62.713,0,0,0-14.77,1.817,85.908,85.908,0,0,0-15.66,5.722l-.64.317,5.95,12.125.63-.317a81.134,81.134,0,0,1,12.18-4.633,40.2,40.2,0,0,1,10.35-1.5c5.64,0,9.95,1.274,12.85,3.727,2.82,2.453,4.32,6.223,4.32,11.262v6.676a49.645,49.645,0,0,0-19.3-3.813c-9.31,0-16.81,2.043-22.17,6.129a20.2,20.2,0,0,0-8.22,16.941,20.555,20.555,0,0,0,3.59,12.039,24.124,24.124,0,0,0,9.81,8.129,33.888,33.888,0,0,0,14.26,2.86,39.36,39.36,0,0,0,12.49-1.907,35.886,35.886,0,0,0,9.59-5v5.633h15.53V382.242c0-8.535-2.73-15.215-8.09-19.847Zm-7.45,40.152v11.625a24.3,24.3,0,0,1-8.4,4.906,32.863,32.863,0,0,1-10.36,1.59c-4.72,0-8.58-1.043-11.49-3.09a9.394,9.394,0,0,1-4.22-7.992,9.589,9.589,0,0,1,4.22-8.266c2.91-2.043,6.95-3.132,12.04-3.132a42.734,42.734,0,0,1,10.03,1.089,29.685,29.685,0,0,1,8.18,3.223Zm0,0" fill="#ff0021"/>
    </g>
    <path id="Path_587" data-name="Path 587" d="M635.2,375.066a37.415,37.415,0,0,0-13.351-13.531,35.87,35.87,0,0,0-18.8-5.043c-8.719,0-16.215,2.68-22.344,8.086V327.332l-14.4,5.816v97.829h14.262v-6.356a.612.612,0,0,1,.136.09,35.669,35.669,0,0,0,10.309,5.449,36.648,36.648,0,0,0,11.762,1.953,36.224,36.224,0,0,0,18.941-5.043,39.029,39.029,0,0,0,13.441-52.047Zm-12.535,32.25a25.114,25.114,0,0,1-8.855,8.993,24.089,24.089,0,0,1-12.629,3.316,29.044,29.044,0,0,1-11.489-2.316,24.906,24.906,0,0,1-8.992-6.36V377.84a24.428,24.428,0,0,1,8.946-6.5,28.782,28.782,0,0,1,11.535-2.317,24.075,24.075,0,0,1,21.484,12.4,25.355,25.355,0,0,1,3.316,12.992A24.9,24.9,0,0,1,622.664,407.316Zm0,0" fill="#ff0021"/>
    <path id="Path_588" data-name="Path 588" d="M564.754,475.531v-26.84h4.133l9.176,19.075,9.128-19.075h4.133v26.84h-2.816v-23.48L578.02,473.625,567.527,452.1v23.433Zm0,0" fill="#ff0021"/>
    <path id="Path_589" data-name="Path 589" d="M605.723,475.852a9.766,9.766,0,0,1-5-1.317,9.844,9.844,0,0,1-4.907-8.629,9.72,9.72,0,0,1,1.274-5,10.317,10.317,0,0,1,3.406-3.59A9.23,9.23,0,0,1,605.313,456a8.366,8.366,0,0,1,4.632,1.316,9.594,9.594,0,0,1,3.27,3.59,10.259,10.259,0,0,1,1.226,5v.86H598.684a7.144,7.144,0,0,0,1.226,3.363,7.031,7.031,0,0,0,2.543,2.359,6.8,6.8,0,0,0,3.453.864,9.087,9.087,0,0,0,2.907-.454,6.25,6.25,0,0,0,2.359-1.316l1.773,1.863a11.989,11.989,0,0,1-3.363,1.77,11.541,11.541,0,0,1-3.812.59ZM598.684,464.5h12.851a7.264,7.264,0,0,0-1.133-3.09,6.688,6.688,0,0,0-2.226-2.133,5.52,5.52,0,0,0-2.953-.773,6.436,6.436,0,0,0-3.043.773,6.544,6.544,0,0,0-2.317,2.133,7.237,7.237,0,0,0-1.179,3.137Zm0,0" fill="#ff0021"/>
    <path id="Path_590" data-name="Path 590" d="M627.113,475.8a9.656,9.656,0,0,1-4.9-1.317,10.333,10.333,0,0,1-3.5-13.672,9.382,9.382,0,0,1,3.5-3.543,9.6,9.6,0,0,1,4.949-1.316,9.878,9.878,0,0,1,3.27.547,8.967,8.967,0,0,1,2.863,1.633v-9.492l2.816-.637v27.48h-2.816v-2.043a8.926,8.926,0,0,1-6.223,2.36Zm.274-2.5a7.735,7.735,0,0,0,3.363-.727,6.6,6.6,0,0,0,2.543-2V461.09a7.375,7.375,0,0,0-2.543-1.953,7.592,7.592,0,0,0-3.363-.727,7.114,7.114,0,0,0-3.633.953,6.887,6.887,0,0,0-2.59,2.637,7.476,7.476,0,0,0-.953,3.77,7.647,7.647,0,0,0,.953,3.812,7.318,7.318,0,0,0,2.59,2.68,6.719,6.719,0,0,0,3.633,1Zm0,0" fill="#ff0021"/>
    <path id="Path_591" data-name="Path 591" d="M642.375,452.641a1.859,1.859,0,0,1-1.363-.59,1.965,1.965,0,0,1-.59-1.363,1.708,1.708,0,0,1,.59-1.317,1.906,1.906,0,0,1,3.269,1.363,1.92,1.92,0,0,1-.543,1.364,1.72,1.72,0,0,1-1.363.59Zm-1.406,22.89V456.32h2.812v19.211Zm0,0" fill="#ff0021"/>
    <path id="Path_592" data-name="Path 592" d="M654.684,475.852a8.785,8.785,0,0,1-3.723-.727,6.2,6.2,0,0,1-2.5-2.043,5.241,5.241,0,0,1-.906-3.043,5.073,5.073,0,0,1,2.086-4.316,9.086,9.086,0,0,1,5.589-1.59,12.106,12.106,0,0,1,5.629,1.316v-2.543a4.389,4.389,0,0,0-1.316-3.453,5.572,5.572,0,0,0-3.816-1.18,10.306,10.306,0,0,0-2.86.411,18.489,18.489,0,0,0-3.179,1.269l-1.09-2.18a21.827,21.827,0,0,1,3.816-1.453,13.6,13.6,0,0,1,3.543-.453,8.416,8.416,0,0,1,5.629,1.727,6.207,6.207,0,0,1,1.953,4.949v12.945H660.77v-1.863a9.16,9.16,0,0,1-2.86,1.68,10.064,10.064,0,0,1-3.363.547Zm-4.36-5.86a3.125,3.125,0,0,0,1.364,2.633,5.663,5.663,0,0,0,3.5,1,8.726,8.726,0,0,0,3.132-.543,7.259,7.259,0,0,0,2.59-1.684v-3.585a8.548,8.548,0,0,0-2.543-1.18,12.26,12.26,0,0,0-3.043-.363,6.328,6.328,0,0,0-3.679,1,3.234,3.234,0,0,0-1.364,2.726Zm0,0" fill="#ff0021"/>
    <path id="Path_593" data-name="Path 593" d="M678.074,452.641a1.859,1.859,0,0,1-1.363-.59,1.97,1.97,0,0,1-.59-1.363,1.7,1.7,0,0,1,.59-1.317,1.906,1.906,0,0,1,3.269,1.363,1.924,1.924,0,0,1-.542,1.364,1.729,1.729,0,0,1-1.364.59Zm-1.41,22.89V456.32h2.816v19.211Zm0,0" fill="#ff0021"/>
    <path id="Path_594" data-name="Path 594" d="M684.34,475.531V456.32h2.816v2.274a7.529,7.529,0,0,1,6.043-2.637,7.757,7.757,0,0,1,3.86.953,6.453,6.453,0,0,1,2.589,2.59,8.146,8.146,0,0,1,.954,3.906v12.172h-2.817V464a5.58,5.58,0,0,0-1.453-4.043,5.186,5.186,0,0,0-3.953-1.453,6.343,6.343,0,0,0-3.086.773,6.012,6.012,0,0,0-2.227,2.18v14.172H684.25Zm0,0" fill="#ff0021"/>
    <path id="Path_595" data-name="Path 595" d="M712.363,475.895a5.547,5.547,0,0,1-3.812-1.18,4.309,4.309,0,0,1-1.363-3.449V458.727h-4.133V456.32h4.133v-4.859l2.816-.727v5.586h5.812v2.407H710v11.808a3.034,3.034,0,0,0,.68,2.227,3.163,3.163,0,0,0,2.273.683,4.969,4.969,0,0,0,1.453-.136,11.212,11.212,0,0,0,1.36-.364v2.5a5.962,5.962,0,0,1-1.633.364c-.59.047-1.18.136-1.727.136Zm0,0" fill="#ff0021"/>
    <path id="Path_596" data-name="Path 596" d="M727.445,475.852a9.759,9.759,0,0,1-5-1.317,10.073,10.073,0,0,1-3.59-3.59,9.934,9.934,0,0,1-1.316-5.039,9.717,9.717,0,0,1,1.27-5,10.353,10.353,0,0,1,3.406-3.59A9.233,9.233,0,0,1,727.035,456a8.386,8.386,0,0,1,4.633,1.316,9.6,9.6,0,0,1,3.27,3.59,10.3,10.3,0,0,1,1.226,5v.86H720.4a7.188,7.188,0,0,0,1.227,3.363,7.062,7.062,0,0,0,2.543,2.359,6.809,6.809,0,0,0,3.453.864,9.059,9.059,0,0,0,2.906-.454,6.272,6.272,0,0,0,2.364-1.316l1.769,1.863a12.037,12.037,0,0,1-3.359,1.77,11.568,11.568,0,0,1-3.817.59ZM720.4,464.5h12.856a7.27,7.27,0,0,0-1.137-3.09,6.66,6.66,0,0,0-2.226-2.133,5.5,5.5,0,0,0-2.95-.773,6.41,6.41,0,0,0-5.359,2.906,7.293,7.293,0,0,0-1.184,3.137Zm0,0" fill="#ff0021"/>
    <path id="Path_597" data-name="Path 597" d="M740.07,475.531v-26.84l2.817-.636v27.476Zm0,0" fill="#ff0021"/>
    <path id="Path_598" data-name="Path 598" d="M747.746,475.531v-26.84l2.817-.636v27.476Zm0,0" fill="#ff0021"/>
    <path id="Path_599" data-name="Path 599" d="M756.828,452.641a1.859,1.859,0,0,1-1.363-.59,1.97,1.97,0,0,1-.59-1.363,1.711,1.711,0,0,1,.59-1.317,1.91,1.91,0,0,1,3.273,1.363,1.924,1.924,0,0,1-.547,1.364,1.886,1.886,0,0,1-1.363.59Zm-1.406,22.89V456.32h2.816v19.211Zm0,0" fill="#ff0021"/>
    <path id="Path_600" data-name="Path 600" d="M772.453,483.707a16.754,16.754,0,0,1-3.953-.5,14.787,14.787,0,0,1-3.586-1.453l1.227-2.223a17,17,0,0,0,3.222,1.36,9.406,9.406,0,0,0,2.953.41,5.931,5.931,0,0,0,4.133-1.317,4.88,4.88,0,0,0,1.41-3.816v-2.68a9.444,9.444,0,0,1-10.9.91,9.255,9.255,0,0,1-3.453-3.543,10.462,10.462,0,0,1,0-9.992,9.579,9.579,0,0,1,3.453-3.543A9.442,9.442,0,0,1,771.863,456a8.768,8.768,0,0,1,3.223.59,9.115,9.115,0,0,1,2.863,1.679v-1.906h2.817v19.8a7.435,7.435,0,0,1-2.137,5.68A8.8,8.8,0,0,1,772.5,483.8Zm-.41-10.535a8.048,8.048,0,0,0,3.363-.684,6.248,6.248,0,0,0,2.5-1.953V461.09a6.568,6.568,0,0,0-2.5-1.906,8.2,8.2,0,0,0-3.363-.684,6.856,6.856,0,0,0-3.586.953,6.64,6.64,0,0,0-2.5,2.637,7.927,7.927,0,0,0,.047,7.449,7.092,7.092,0,0,0,2.543,2.633,6.7,6.7,0,0,0,3.543,1Zm0,0" fill="#ff0021"/>
    <path id="Path_601" data-name="Path 601" d="M794.57,475.852a9.78,9.78,0,0,1-5-1.317,10.063,10.063,0,0,1-3.586-3.59,9.935,9.935,0,0,1-1.316-5.039,9.726,9.726,0,0,1,1.269-5,10.356,10.356,0,0,1,3.407-3.59A9.233,9.233,0,0,1,794.164,456a8.385,8.385,0,0,1,4.633,1.316,9.657,9.657,0,0,1,3.269,3.59,10.292,10.292,0,0,1,1.227,5v.86H787.531a7.188,7.188,0,0,0,1.227,3.363,7.062,7.062,0,0,0,2.543,2.359,6.806,6.806,0,0,0,3.453.864,9.059,9.059,0,0,0,2.906-.454,6.26,6.26,0,0,0,2.363-1.316l1.77,1.863a12.038,12.038,0,0,1-3.359,1.77,12.945,12.945,0,0,1-3.817.59ZM787.531,464.5h12.856a7.27,7.27,0,0,0-1.137-3.09,6.654,6.654,0,0,0-2.227-2.133,5.511,5.511,0,0,0-2.953-.773,6.448,6.448,0,0,0-3.043.773,6.96,6.96,0,0,0-2.316,2.133,7.943,7.943,0,0,0-1.18,3.137Zm0,0" fill="#ff0021"/>
    <path id="Path_602" data-name="Path 602" d="M807.2,475.531V456.32h2.86v2.274a7.529,7.529,0,0,1,6.043-2.637,7.753,7.753,0,0,1,3.859.953,6.79,6.79,0,0,1,2.59,2.59,7.684,7.684,0,0,1,.953,3.906v12.172h-2.816V464a5.576,5.576,0,0,0-1.454-4.043,5.192,5.192,0,0,0-3.953-1.453,6.346,6.346,0,0,0-3.086.773,6.01,6.01,0,0,0-2.226,2.18v14.172H807.1Zm0,0" fill="#ff0021"/>
    <path id="Path_603" data-name="Path 603" d="M837.129,475.852a9.712,9.712,0,0,1-4.949-1.317,9.583,9.583,0,0,1-3.543-3.59,10.053,10.053,0,0,1,3.543-13.672,9.34,9.34,0,0,1,4.949-1.359,10.744,10.744,0,0,1,7.492,3L842.8,461a7.5,7.5,0,0,0-2.633-1.863,7.932,7.932,0,0,0-3.043-.637,6.336,6.336,0,0,0-3.543,1,7.475,7.475,0,0,0-2.543,2.633,7.336,7.336,0,0,0-.953,3.726,7.612,7.612,0,0,0,.953,3.77,7.194,7.194,0,0,0,2.543,2.68,6.984,6.984,0,0,0,3.586,1,7.178,7.178,0,0,0,2.953-.59,8.356,8.356,0,0,0,2.637-1.821l1.769,1.911a11.633,11.633,0,0,1-3.453,2.269,9.935,9.935,0,0,1-4,.817Zm0,0" fill="#ff0021"/>
    <path id="Path_604" data-name="Path 604" d="M856.34,475.852a9.769,9.769,0,0,1-5-1.317,9.84,9.84,0,0,1-4.906-8.629,9.729,9.729,0,0,1,1.273-5,10.353,10.353,0,0,1,3.406-3.59A9.23,9.23,0,0,1,855.93,456a8.371,8.371,0,0,1,4.633,1.316,9.634,9.634,0,0,1,3.273,3.59,10.3,10.3,0,0,1,1.223,5v.86H849.3a7.154,7.154,0,0,0,1.226,3.363,7.062,7.062,0,0,0,2.543,2.359,6.8,6.8,0,0,0,3.453.864,9.078,9.078,0,0,0,2.907-.454,6.219,6.219,0,0,0,2.359-1.316l1.774,1.863a11.994,11.994,0,0,1-3.364,1.77,12.885,12.885,0,0,1-3.812.59ZM849.3,464.5h12.851a7.263,7.263,0,0,0-1.132-3.09,6.664,6.664,0,0,0-2.227-2.133,5.52,5.52,0,0,0-2.953-.773,6.436,6.436,0,0,0-3.043.773,6.963,6.963,0,0,0-2.317,2.133,7.881,7.881,0,0,0-1.179,3.137Zm0,0" fill="#ff0021"/>
    <path id="Path_605" data-name="Path 605" d="M884.68,475.941a10.545,10.545,0,0,1-4.633-.953,7.423,7.423,0,0,1-3.086-2.679,7.944,7.944,0,0,1-.547-6.9,7.024,7.024,0,0,1,1.863-2.453,18.944,18.944,0,0,1,3.543-2.363,11.863,11.863,0,0,1-1.906-3.086,8.139,8.139,0,0,1-.547-2.953,6.033,6.033,0,0,1,.863-3.227,6.155,6.155,0,0,1,2.317-2.269,6.751,6.751,0,0,1,3.316-.817,6.264,6.264,0,0,1,3.133.727,5.25,5.25,0,0,1,2.906,4.859,5.792,5.792,0,0,1-1.043,3.36A9.82,9.82,0,0,1,887.59,460l-1.91,1.137c1.047,1.179,2.179,2.359,3.453,3.586s2.543,2.453,3.816,3.632A16.229,16.229,0,0,0,894.535,465a25.859,25.859,0,0,0,1-3.816l2.59.41a26.953,26.953,0,0,1-1.316,4.586,20.114,20.114,0,0,1-2,3.953q1.23,1.089,2.453,2.043c.816.637,1.59,1.273,2.316,1.816l-1.726,2.043c-.727-.543-1.454-1.133-2.223-1.769s-1.59-1.274-2.363-1.953a11.122,11.122,0,0,1-3.86,2.726,11.921,11.921,0,0,1-4.726.953Zm.136-2.406a9.574,9.574,0,0,0,3.59-.726,8.1,8.1,0,0,0,2.953-2.18c-1.5-1.363-2.91-2.727-4.316-4.133s-2.68-2.726-3.816-4.043a18.352,18.352,0,0,0-2.86,1.863,4.687,4.687,0,0,0-1.863,3.95,4.749,4.749,0,0,0,1.726,3.816A7.026,7.026,0,0,0,884.816,473.535Zm-.679-14.172,2.179-1.269a6.706,6.706,0,0,0,2.133-1.864,4.129,4.129,0,0,0,.727-2.363,3.06,3.06,0,0,0-1-2.359,3.469,3.469,0,0,0-2.453-.953,3.593,3.593,0,0,0-2.68,1.09A3.835,3.835,0,0,0,882,454.5a5.706,5.706,0,0,0,.5,2.269,10.6,10.6,0,0,0,1.68,2.547Zm0,0" fill="#ff0021"/>
    <path id="Path_606" data-name="Path 606" d="M919.742,475.895a14.966,14.966,0,0,1-11.215-5l1.953-2.043a14.035,14.035,0,0,0,4.4,3.317,11.748,11.748,0,0,0,4.953,1.09,9.578,9.578,0,0,0,3.723-.68,6.112,6.112,0,0,0,2.543-1.863,4.583,4.583,0,0,0,.91-2.727,3.811,3.811,0,0,0-1.453-3.179,11.054,11.054,0,0,0-4.723-1.633l-3.863-.637a11.157,11.157,0,0,1-5.723-2.316,5.723,5.723,0,0,1-1.863-4.5,6.725,6.725,0,0,1,1.183-3.906,7.719,7.719,0,0,1,3.317-2.633,11.874,11.874,0,0,1,4.949-.953,18,18,0,0,1,5.586.907,18.245,18.245,0,0,1,5,2.632l-1.68,2.317a14.817,14.817,0,0,0-8.992-3.313,8.526,8.526,0,0,0-3.363.59,5.719,5.719,0,0,0-2.27,1.633,3.977,3.977,0,0,0-.816,2.453,3.31,3.31,0,0,0,1.269,2.863,9.822,9.822,0,0,0,4.18,1.453l3.817.59q4.424.75,6.4,2.453a6.271,6.271,0,0,1,2,4.907,7.131,7.131,0,0,1-1.32,4.175,8.551,8.551,0,0,1-3.633,2.864,13.163,13.163,0,0,1-5.36,1Zm0,0" fill="#ff0021"/>
    <path id="Path_607" data-name="Path 607" d="M942.863,475.895a9.737,9.737,0,0,1-4.953-1.317,9.63,9.63,0,0,1-3.543-3.586,10.313,10.313,0,0,1,0-10.082,9.619,9.619,0,0,1,3.543-3.59A9.736,9.736,0,0,1,942.863,456a9.891,9.891,0,0,1,5,1.316,9.619,9.619,0,0,1,3.543,3.59,10.306,10.306,0,0,1,0,10.082,9.63,9.63,0,0,1-3.543,3.586A9.777,9.777,0,0,1,942.863,475.895Zm0-2.543a6.34,6.34,0,0,0,3.543-1,7.63,7.63,0,0,0,2.543-2.679,7.538,7.538,0,0,0,.953-3.77,7.428,7.428,0,0,0-.953-3.773,7.587,7.587,0,0,0-2.543-2.68,6.8,6.8,0,0,0-7.086,0,7.58,7.58,0,0,0-2.543,2.68,7.4,7.4,0,0,0-.957,3.773,7.51,7.51,0,0,0,.957,3.77,7.212,7.212,0,0,0,2.543,2.679A6.324,6.324,0,0,0,942.863,473.352Zm0,0" fill="#ff0021"/>
    <path id="Path_608" data-name="Path 608" d="M956.625,475.531v-26.84l2.859-.636v27.476Zm0,0" fill="#ff0021"/>
    <path id="Path_609" data-name="Path 609" d="M971.656,475.895a7.588,7.588,0,0,1-3.859-.954,6.8,6.8,0,0,1-2.633-2.586,7.653,7.653,0,0,1-.957-3.906V456.277h2.816v11.578a5.575,5.575,0,0,0,1.454,4.043,5.139,5.139,0,0,0,3.906,1.454,6.357,6.357,0,0,0,3.09-.77,6.594,6.594,0,0,0,2.226-2.227V456.23h2.813v19.211H977.7v-2.226a7.582,7.582,0,0,1-6.043,2.59Zm0,0" fill="#ff0021"/>
    <path id="Path_610" data-name="Path 610" d="M992.914,475.895a5.549,5.549,0,0,1-3.816-1.18,4.31,4.31,0,0,1-1.364-3.449V458.727H983.6V456.32h4.132v-4.859l2.817-.727v5.586h5.812v2.407h-5.812v11.808a3.038,3.038,0,0,0,.679,2.227,3.174,3.174,0,0,0,2.274.683,4.955,4.955,0,0,0,1.453-.136,11.247,11.247,0,0,0,1.363-.364v2.5a5.991,5.991,0,0,1-1.636.364c-.59.047-1.18.136-1.727.136Zm0,0" fill="#ff0021"/>
    <path id="Path_611" data-name="Path 611" d="M1000.77,452.641a2.018,2.018,0,0,1-1.954-1.953,1.711,1.711,0,0,1,.59-1.317,1.861,1.861,0,0,1,1.364-.543,1.867,1.867,0,0,1,1.91,1.906,1.9,1.9,0,0,1-.55,1.364,1.706,1.706,0,0,1-1.36.59Zm-1.407,22.89V456.32h2.857v19.211Zm0,0" fill="#ff0021"/>
    <path id="Path_612" data-name="Path 612" d="M1015.94,475.895a9.715,9.715,0,0,1-4.95-1.317,9.571,9.571,0,0,1-3.54-3.586,10.286,10.286,0,0,1,0-10.082,9.56,9.56,0,0,1,3.54-3.59,9.714,9.714,0,0,1,4.95-1.316,9.9,9.9,0,0,1,5,1.316,9.633,9.633,0,0,1,3.54,3.59,10.285,10.285,0,0,1,0,10.082,9.645,9.645,0,0,1-3.54,3.586A9.792,9.792,0,0,1,1015.94,475.895Zm0-2.543a6.307,6.307,0,0,0,3.54-1,7.463,7.463,0,0,0,3.5-6.449,7.457,7.457,0,0,0-.95-3.773,7.643,7.643,0,0,0-2.55-2.68,6.789,6.789,0,0,0-7.08,0,7.52,7.52,0,0,0-2.54,2.68,7.362,7.362,0,0,0-.96,3.773,7.471,7.471,0,0,0,.96,3.77,7.181,7.181,0,0,0,2.54,2.679A6.307,6.307,0,0,0,1015.94,473.352Zm0,0" fill="#ff0021"/>
    <path id="Path_613" data-name="Path 613" d="M1029.7,475.531V456.32h2.86v2.274a7.536,7.536,0,0,1,6.04-2.637,7.719,7.719,0,0,1,3.86.953,6.763,6.763,0,0,1,2.59,2.59,7.617,7.617,0,0,1,.96,3.906v12.172h-2.82V464a5.591,5.591,0,0,0-1.45-4.043,5.2,5.2,0,0,0-3.95-1.453,6.351,6.351,0,0,0-3.09.773,6.021,6.021,0,0,0-2.23,2.18v14.172h-2.86Zm0,0" fill="#ff0021"/>
    <path id="Path_614" data-name="Path 614" d="M1056.91,475.895a12.874,12.874,0,0,1-4.45-.77,11.443,11.443,0,0,1-3.64-2.227l1.73-1.863a10.3,10.3,0,0,0,2.95,1.91,8.52,8.52,0,0,0,3.32.68,6.83,6.83,0,0,0,3.77-.953,2.9,2.9,0,0,0,1.45-2.5,2.428,2.428,0,0,0-.86-2,5.762,5.762,0,0,0-2.73-1l-3.31-.453a7.722,7.722,0,0,1-4.27-1.727,4.676,4.676,0,0,1-1.41-3.543,4.769,4.769,0,0,1,.91-2.859,6.207,6.207,0,0,1,2.54-2,8.793,8.793,0,0,1,3.72-.727,12.442,12.442,0,0,1,3.96.59,13.272,13.272,0,0,1,3.58,1.906l-1.49,1.91a14.92,14.92,0,0,0-3.14-1.636,8.961,8.961,0,0,0-3.09-.5,5.421,5.421,0,0,0-3.22.863,2.73,2.73,0,0,0-1.23,2.316,2.226,2.226,0,0,0,.86,1.954,5.6,5.6,0,0,0,2.73.953l3.32.457a8.017,8.017,0,0,1,4.31,1.679,4.6,4.6,0,0,1,1.45,3.586,4.921,4.921,0,0,1-1.04,3,6.843,6.843,0,0,1-2.77,2.09,9.972,9.972,0,0,1-3.95.77Zm0,0" fill="#ff0021"/>
  </g>
</svg>
