<svg xmlns="http://www.w3.org/2000/svg" width="53.3" height="31.172" viewBox="0 0 53.3 31.172">
  <g id="Group_125" data-name="Group 125" transform="translate(979.2 -307.216)">
    <path id="Path_114" data-name="Path 114" d="M-960.5,332.5c10.7,5.2,23,7.3,34.6,4.9-2.5-4.7-5-9.3-7.5-14-2.1-3.9-4.3-8-8-10.5-3.2-2.1-7.1-2.9-10.9-3.2a81.115,81.115,0,0,0-26.9,2.2c2.1,3.6,3.9,8,6.3,11.3C-969.6,327.3-965.1,330.2-960.5,332.5Z" fill="#fff"/>
    <path id="Path_115" data-name="Path 115" d="M-966.8,324.3c-.4-2.7-.6-5.6.6-8.1,1-2.1,3.1-3.6,5.1-4.9,4.6-2.8,10-4.7,15.3-3.9s10.3,5,10.7,10.4c.2,3.1-1,6.1-2.6,8.9a18.821,18.821,0,0,1-5.8,6.7c-3.2,2.1-7.2,2.7-11,2.9C-962,336.7-965.9,331.2-966.8,324.3Z" fill="#ff302d"/>
    <path id="Path_116" data-name="Path 116" d="M-944.2,315.7c-2.3-1.4-5.1-1.5-7.8-1.5a9.7,9.7,0,0,0-5.6,1.3,6.671,6.671,0,0,0-2.4,4.1,19.927,19.927,0,0,0-.2,4.9c.1,1.8.2,3.8,1.4,5.2a6.549,6.549,0,0,0,4.2,1.9,13.462,13.462,0,0,0,8.3-1.7C-942,327.3-938.6,319.1-944.2,315.7Z" fill="#181439"/>
    <path id="Path_117" data-name="Path 117" d="M-940,312.9a12.508,12.508,0,0,1-10.5,10.8s11.6,3.4,12.5,10.3c0,0,1.3-10.7,10-12C-927.9,321.9-937.4,322-940,312.9Z" fill="#f9eb00"/>
  </g>
</svg>
