<svg xmlns="http://www.w3.org/2000/svg" width="43.758" height="87.116" viewBox="0 0 43.758 87.116">
  <g id="Group_77" data-name="Group 77" transform="translate(493.265 -289.968)">
    <g id="Group_72" data-name="Group 72">
      <path id="Path_56" data-name="Path 56" d="M-476.8,309.5c.8-6.6,3.4-13.2,8.2-17.9,1.2-1.1,3-2.2,4.4-1.3,1.1.7,1.2,2.3,1.1,3.6a83,83,0,0,1-7.1,31c2.7-1.7,4.5-4.4,7-6.3s6.5-2.7,8.7-.5c2.6,2.7.6,7.3-2.2,9.9a20.052,20.052,0,0,1-14,5.1,5.05,5.05,0,0,0-3,.5,4.251,4.251,0,0,0-1.5,2.5,115.425,115.425,0,0,0-4,17.4l-4.5-1.2c-1.9-.5,6.2-19.9,6.7-21.6C-474.8,324-477.7,316.4-476.8,309.5Z" fill="#fff"/>
    </g>
    <g id="Group_73" data-name="Group 73">
      <path id="Path_57" data-name="Path 57" d="M-488.7,327.8a3.25,3.25,0,0,0-2.4-1,2.549,2.549,0,0,0-2.1,2.2,7.079,7.079,0,0,0,.4,3.2,63.928,63.928,0,0,0,4.5,11.2c3.2,6.1,8,5.7,7.2-1.6A20.47,20.47,0,0,0-488.7,327.8Z" fill="#ff302d"/>
    </g>
    <g id="Group_74" data-name="Group 74">
      <path id="Path_58" data-name="Path 58" d="M-451.3,338.9a7.41,7.41,0,0,0-3.8-1.2c-7.2-.6-20.3,5-20.1,13.9.3,10.2,17.2,2,21.1-1.2a12.144,12.144,0,0,0,4.2-5.3C-449.1,342.9-449.5,340.2-451.3,338.9Z" fill="#ff302d"/>
    </g>
    <g id="Group_75" data-name="Group 75">
      <path id="Path_59" data-name="Path 59" d="M-464.3,369.7a13.281,13.281,0,0,0-4-4.5c-3.2-2.5-21.1-11.1-15.7.2a14.992,14.992,0,0,0,4.6,5.1,50.44,50.44,0,0,0,8.8,5.6c1.4.7,3,1.3,4.4.8a4.573,4.573,0,0,0,1.7-1.4A5.715,5.715,0,0,0-464.3,369.7Z" fill="#fff"/>
    </g>
    <g id="Group_76" data-name="Group 76">
      <path id="Path_60" data-name="Path 60" d="M-470,324.3a3.635,3.635,0,0,1-2.9-1.8,6.959,6.959,0,0,1-.8-3.6,38.03,38.03,0,0,1,4.7-19.5l1.1.6a36.317,36.317,0,0,0-4.5,18.8,6.613,6.613,0,0,0,.6,3.1,2.226,2.226,0,0,0,2.2,1.2l.3,1.2C-469.5,324.2-469.8,324.3-470,324.3Z" fill="#001"/>
    </g>
  </g>
</svg>
